<mxfile host="app.diagrams.net" agent="Mozilla/5.0 (Windows NT 10.0; Win64; x64) AppleWebKit/537.36 (KHTML, like Gecko) Chrome/139.0.0.0 Safari/537.36 Edg/139.0.0.0" version="28.0.7">
  <diagram name="第 1 页" id="N2pEsrsJfEJHDycA1In7">
    <mxGraphModel dx="841" dy="506" grid="1" gridSize="10" guides="1" tooltips="1" connect="1" arrows="1" fold="1" page="1" pageScale="1" pageWidth="827" pageHeight="1169" math="0" shadow="0">
      <root>
        <mxCell id="0" />
        <mxCell id="1" parent="0" />
        <mxCell id="7j9jm5iTzWrUl_is-yhY-3" value="Platform" style="swimlane;whiteSpace=wrap;html=1;startSize=10;" parent="1" vertex="1">
          <mxGeometry x="19" y="400" width="230" height="129" as="geometry">
            <mxRectangle x="180" y="140" width="140" height="30" as="alternateBounds" />
          </mxGeometry>
        </mxCell>
        <mxCell id="7j9jm5iTzWrUl_is-yhY-9" value="" style="shape=table;startSize=0;container=1;collapsible=0;childLayout=tableLayout;fontSize=16;" parent="7j9jm5iTzWrUl_is-yhY-3" vertex="1">
          <mxGeometry x="10" y="20" width="200" height="20" as="geometry" />
        </mxCell>
        <mxCell id="7j9jm5iTzWrUl_is-yhY-10" value="" style="shape=tableRow;horizontal=0;startSize=0;swimlaneHead=0;swimlaneBody=0;strokeColor=inherit;top=0;left=0;bottom=0;right=0;collapsible=0;dropTarget=0;fillColor=none;points=[[0,0.5],[1,0.5]];portConstraint=eastwest;fontSize=16;" parent="7j9jm5iTzWrUl_is-yhY-9" vertex="1">
          <mxGeometry width="200" height="20" as="geometry" />
        </mxCell>
        <mxCell id="7j9jm5iTzWrUl_is-yhY-11" value="Name" style="shape=partialRectangle;html=1;whiteSpace=wrap;connectable=0;strokeColor=inherit;overflow=hidden;fillColor=none;top=0;left=0;bottom=0;right=0;pointerEvents=1;fontSize=11;" parent="7j9jm5iTzWrUl_is-yhY-10" vertex="1">
          <mxGeometry width="40" height="20" as="geometry">
            <mxRectangle width="40" height="20" as="alternateBounds" />
          </mxGeometry>
        </mxCell>
        <mxCell id="7j9jm5iTzWrUl_is-yhY-12" value="&lt;font&gt;Type&lt;/font&gt;" style="shape=partialRectangle;html=1;whiteSpace=wrap;connectable=0;strokeColor=inherit;overflow=hidden;fillColor=none;top=0;left=0;bottom=0;right=0;pointerEvents=1;fontSize=11;" parent="7j9jm5iTzWrUl_is-yhY-10" vertex="1">
          <mxGeometry x="40" width="40" height="20" as="geometry">
            <mxRectangle width="40" height="20" as="alternateBounds" />
          </mxGeometry>
        </mxCell>
        <mxCell id="7j9jm5iTzWrUl_is-yhY-13" value="&lt;font&gt;ID&lt;/font&gt;" style="shape=partialRectangle;html=1;whiteSpace=wrap;connectable=0;strokeColor=inherit;overflow=hidden;fillColor=none;top=0;left=0;bottom=0;right=0;pointerEvents=1;fontSize=11;" parent="7j9jm5iTzWrUl_is-yhY-10" vertex="1">
          <mxGeometry x="80" width="40" height="20" as="geometry">
            <mxRectangle width="40" height="20" as="alternateBounds" />
          </mxGeometry>
        </mxCell>
        <mxCell id="7j9jm5iTzWrUl_is-yhY-22" value="Loc" style="shape=partialRectangle;html=1;whiteSpace=wrap;connectable=0;strokeColor=inherit;overflow=hidden;fillColor=none;top=0;left=0;bottom=0;right=0;pointerEvents=1;fontSize=11;" parent="7j9jm5iTzWrUl_is-yhY-10" vertex="1">
          <mxGeometry x="120" width="40" height="20" as="geometry">
            <mxRectangle width="40" height="20" as="alternateBounds" />
          </mxGeometry>
        </mxCell>
        <mxCell id="7j9jm5iTzWrUl_is-yhY-33" value="Device" style="shape=partialRectangle;html=1;whiteSpace=wrap;connectable=0;strokeColor=inherit;overflow=hidden;fillColor=none;top=0;left=0;bottom=0;right=0;pointerEvents=1;fontSize=11;" parent="7j9jm5iTzWrUl_is-yhY-10" vertex="1">
          <mxGeometry x="160" width="40" height="20" as="geometry">
            <mxRectangle width="40" height="20" as="alternateBounds" />
          </mxGeometry>
        </mxCell>
        <mxCell id="7j9jm5iTzWrUl_is-yhY-25" value="VNF" style="swimlane;whiteSpace=wrap;html=1;startSize=10;" parent="7j9jm5iTzWrUl_is-yhY-3" vertex="1">
          <mxGeometry x="10" y="49" width="120" height="70" as="geometry">
            <mxRectangle x="10" y="79" width="70" height="30" as="alternateBounds" />
          </mxGeometry>
        </mxCell>
        <mxCell id="7j9jm5iTzWrUl_is-yhY-45" value="" style="shape=table;startSize=0;container=1;collapsible=0;childLayout=tableLayout;fontSize=15;" parent="7j9jm5iTzWrUl_is-yhY-25" vertex="1">
          <mxGeometry x="10" y="21" width="100" height="45" as="geometry" />
        </mxCell>
        <mxCell id="7j9jm5iTzWrUl_is-yhY-46" value="" style="shape=tableRow;horizontal=0;startSize=0;swimlaneHead=0;swimlaneBody=0;strokeColor=inherit;top=0;left=0;bottom=0;right=0;collapsible=0;dropTarget=0;fillColor=none;points=[[0,0.5],[1,0.5]];portConstraint=eastwest;fontSize=16;" parent="7j9jm5iTzWrUl_is-yhY-45" vertex="1">
          <mxGeometry width="100" height="15" as="geometry" />
        </mxCell>
        <mxCell id="7j9jm5iTzWrUl_is-yhY-47" value="Name" style="shape=partialRectangle;html=1;whiteSpace=wrap;connectable=0;strokeColor=inherit;overflow=hidden;fillColor=none;top=0;left=0;bottom=0;right=0;pointerEvents=1;fontSize=9;" parent="7j9jm5iTzWrUl_is-yhY-46" vertex="1">
          <mxGeometry width="34" height="15" as="geometry">
            <mxRectangle width="34" height="15" as="alternateBounds" />
          </mxGeometry>
        </mxCell>
        <mxCell id="7j9jm5iTzWrUl_is-yhY-48" value="&lt;font&gt;Type&lt;/font&gt;" style="shape=partialRectangle;html=1;whiteSpace=wrap;connectable=0;strokeColor=inherit;overflow=hidden;fillColor=none;top=0;left=0;bottom=0;right=0;pointerEvents=1;fontSize=9;" parent="7j9jm5iTzWrUl_is-yhY-46" vertex="1">
          <mxGeometry x="34" width="32" height="15" as="geometry">
            <mxRectangle width="32" height="15" as="alternateBounds" />
          </mxGeometry>
        </mxCell>
        <mxCell id="7j9jm5iTzWrUl_is-yhY-49" value="&lt;font&gt;ID&lt;/font&gt;" style="shape=partialRectangle;html=1;whiteSpace=wrap;connectable=0;strokeColor=inherit;overflow=hidden;fillColor=none;top=0;left=0;bottom=0;right=0;pointerEvents=1;fontSize=9;" parent="7j9jm5iTzWrUl_is-yhY-46" vertex="1">
          <mxGeometry x="66" width="34" height="15" as="geometry">
            <mxRectangle width="34" height="15" as="alternateBounds" />
          </mxGeometry>
        </mxCell>
        <mxCell id="7j9jm5iTzWrUl_is-yhY-50" style="shape=tableRow;horizontal=0;startSize=0;swimlaneHead=0;swimlaneBody=0;strokeColor=inherit;top=0;left=0;bottom=0;right=0;collapsible=0;dropTarget=0;fillColor=none;points=[[0,0.5],[1,0.5]];portConstraint=eastwest;fontSize=16;" parent="7j9jm5iTzWrUl_is-yhY-45" vertex="1">
          <mxGeometry y="15" width="100" height="15" as="geometry" />
        </mxCell>
        <mxCell id="7j9jm5iTzWrUl_is-yhY-51" value="Resource" style="shape=partialRectangle;html=1;whiteSpace=wrap;connectable=0;strokeColor=inherit;overflow=hidden;fillColor=none;top=0;left=0;bottom=0;right=0;pointerEvents=1;fontSize=9;rowspan=1;colspan=2;" parent="7j9jm5iTzWrUl_is-yhY-50" vertex="1">
          <mxGeometry width="66" height="15" as="geometry">
            <mxRectangle width="34" height="15" as="alternateBounds" />
          </mxGeometry>
        </mxCell>
        <mxCell id="7j9jm5iTzWrUl_is-yhY-52" style="shape=partialRectangle;html=1;whiteSpace=wrap;connectable=0;strokeColor=inherit;overflow=hidden;fillColor=none;top=0;left=0;bottom=0;right=0;pointerEvents=1;fontSize=11;" parent="7j9jm5iTzWrUl_is-yhY-50" vertex="1" visible="0">
          <mxGeometry x="34" width="32" height="15" as="geometry">
            <mxRectangle width="32" height="15" as="alternateBounds" />
          </mxGeometry>
        </mxCell>
        <mxCell id="7j9jm5iTzWrUl_is-yhY-53" value="Port" style="shape=partialRectangle;html=1;whiteSpace=wrap;connectable=0;strokeColor=inherit;overflow=hidden;fillColor=none;top=0;left=0;bottom=0;right=0;pointerEvents=1;fontSize=9;" parent="7j9jm5iTzWrUl_is-yhY-50" vertex="1">
          <mxGeometry x="66" width="34" height="15" as="geometry">
            <mxRectangle width="34" height="15" as="alternateBounds" />
          </mxGeometry>
        </mxCell>
        <mxCell id="7j9jm5iTzWrUl_is-yhY-163" style="shape=tableRow;horizontal=0;startSize=0;swimlaneHead=0;swimlaneBody=0;strokeColor=inherit;top=0;left=0;bottom=0;right=0;collapsible=0;dropTarget=0;fillColor=none;points=[[0,0.5],[1,0.5]];portConstraint=eastwest;fontSize=16;" parent="7j9jm5iTzWrUl_is-yhY-45" vertex="1">
          <mxGeometry y="30" width="100" height="15" as="geometry" />
        </mxCell>
        <mxCell id="7j9jm5iTzWrUl_is-yhY-164" value="IP" style="shape=partialRectangle;html=1;whiteSpace=wrap;connectable=0;strokeColor=inherit;overflow=hidden;fillColor=none;top=0;left=0;bottom=0;right=0;pointerEvents=1;fontSize=9;" parent="7j9jm5iTzWrUl_is-yhY-163" vertex="1">
          <mxGeometry width="34" height="15" as="geometry">
            <mxRectangle width="34" height="15" as="alternateBounds" />
          </mxGeometry>
        </mxCell>
        <mxCell id="7j9jm5iTzWrUl_is-yhY-165" style="shape=partialRectangle;html=1;whiteSpace=wrap;connectable=0;strokeColor=inherit;overflow=hidden;fillColor=none;top=0;left=0;bottom=0;right=0;pointerEvents=1;fontSize=11;" parent="7j9jm5iTzWrUl_is-yhY-163" vertex="1">
          <mxGeometry x="34" width="32" height="15" as="geometry">
            <mxRectangle width="32" height="15" as="alternateBounds" />
          </mxGeometry>
        </mxCell>
        <mxCell id="7j9jm5iTzWrUl_is-yhY-166" style="shape=partialRectangle;html=1;whiteSpace=wrap;connectable=0;strokeColor=inherit;overflow=hidden;fillColor=none;top=0;left=0;bottom=0;right=0;pointerEvents=1;fontSize=9;" parent="7j9jm5iTzWrUl_is-yhY-163" vertex="1">
          <mxGeometry x="66" width="34" height="15" as="geometry">
            <mxRectangle width="34" height="15" as="alternateBounds" />
          </mxGeometry>
        </mxCell>
        <mxCell id="7j9jm5iTzWrUl_is-yhY-63" value="Platform" style="swimlane;whiteSpace=wrap;html=1;startSize=10;" parent="1" vertex="1">
          <mxGeometry x="281" y="241" width="459" height="400" as="geometry">
            <mxRectangle x="180" y="140" width="140" height="30" as="alternateBounds" />
          </mxGeometry>
        </mxCell>
        <mxCell id="7j9jm5iTzWrUl_is-yhY-64" value="Switch" style="swimlane;whiteSpace=wrap;html=1;startSize=10;" parent="7j9jm5iTzWrUl_is-yhY-63" vertex="1">
          <mxGeometry x="10" y="50" width="440" height="80" as="geometry">
            <mxRectangle x="10" y="50" width="140" height="30" as="alternateBounds" />
          </mxGeometry>
        </mxCell>
        <mxCell id="7j9jm5iTzWrUl_is-yhY-110" value="" style="shape=table;startSize=0;container=1;collapsible=0;childLayout=tableLayout;fontSize=16;" parent="7j9jm5iTzWrUl_is-yhY-64" vertex="1">
          <mxGeometry x="10" y="20" width="160" height="20" as="geometry" />
        </mxCell>
        <mxCell id="7j9jm5iTzWrUl_is-yhY-111" value="" style="shape=tableRow;horizontal=0;startSize=0;swimlaneHead=0;swimlaneBody=0;strokeColor=inherit;top=0;left=0;bottom=0;right=0;collapsible=0;dropTarget=0;fillColor=none;points=[[0,0.5],[1,0.5]];portConstraint=eastwest;fontSize=16;" parent="7j9jm5iTzWrUl_is-yhY-110" vertex="1">
          <mxGeometry width="160" height="20" as="geometry" />
        </mxCell>
        <mxCell id="7j9jm5iTzWrUl_is-yhY-112" value="Name" style="shape=partialRectangle;html=1;whiteSpace=wrap;connectable=0;strokeColor=inherit;overflow=hidden;fillColor=none;top=0;left=0;bottom=0;right=0;pointerEvents=1;fontSize=11;" parent="7j9jm5iTzWrUl_is-yhY-111" vertex="1">
          <mxGeometry width="40" height="20" as="geometry">
            <mxRectangle width="40" height="20" as="alternateBounds" />
          </mxGeometry>
        </mxCell>
        <mxCell id="7j9jm5iTzWrUl_is-yhY-113" value="&lt;font&gt;Type&lt;/font&gt;" style="shape=partialRectangle;html=1;whiteSpace=wrap;connectable=0;strokeColor=inherit;overflow=hidden;fillColor=none;top=0;left=0;bottom=0;right=0;pointerEvents=1;fontSize=11;" parent="7j9jm5iTzWrUl_is-yhY-111" vertex="1">
          <mxGeometry x="40" width="40" height="20" as="geometry">
            <mxRectangle width="40" height="20" as="alternateBounds" />
          </mxGeometry>
        </mxCell>
        <mxCell id="7j9jm5iTzWrUl_is-yhY-114" value="&lt;font&gt;ID&lt;/font&gt;" style="shape=partialRectangle;html=1;whiteSpace=wrap;connectable=0;strokeColor=inherit;overflow=hidden;fillColor=none;top=0;left=0;bottom=0;right=0;pointerEvents=1;fontSize=11;" parent="7j9jm5iTzWrUl_is-yhY-111" vertex="1">
          <mxGeometry x="80" width="40" height="20" as="geometry">
            <mxRectangle width="40" height="20" as="alternateBounds" />
          </mxGeometry>
        </mxCell>
        <mxCell id="7j9jm5iTzWrUl_is-yhY-115" value="Port" style="shape=partialRectangle;html=1;whiteSpace=wrap;connectable=0;strokeColor=inherit;overflow=hidden;fillColor=none;top=0;left=0;bottom=0;right=0;pointerEvents=1;fontSize=11;" parent="7j9jm5iTzWrUl_is-yhY-111" vertex="1">
          <mxGeometry x="120" width="40" height="20" as="geometry">
            <mxRectangle width="40" height="20" as="alternateBounds" />
          </mxGeometry>
        </mxCell>
        <mxCell id="7j9jm5iTzWrUl_is-yhY-197" value="Route Table" style="swimlane;fontStyle=0;childLayout=stackLayout;horizontal=1;startSize=10;horizontalStack=0;resizeParent=1;resizeParentMax=0;resizeLast=0;collapsible=1;marginBottom=0;whiteSpace=wrap;html=1;" parent="7j9jm5iTzWrUl_is-yhY-64" vertex="1">
          <mxGeometry x="10" y="50" width="160" height="30" as="geometry">
            <mxRectangle x="410" y="80" width="100" height="30" as="alternateBounds" />
          </mxGeometry>
        </mxCell>
        <mxCell id="7j9jm5iTzWrUl_is-yhY-198" value="Destination Address：Port" style="text;strokeColor=none;fillColor=none;align=left;verticalAlign=middle;spacingLeft=4;spacingRight=4;overflow=hidden;points=[[0,0.5],[1,0.5]];portConstraint=eastwest;rotatable=0;whiteSpace=wrap;html=1;fontSize=10;" parent="7j9jm5iTzWrUl_is-yhY-197" vertex="1">
          <mxGeometry y="10" width="160" height="20" as="geometry" />
        </mxCell>
        <mxCell id="7j9jm5iTzWrUl_is-yhY-65" value="Server" style="swimlane;whiteSpace=wrap;html=1;startSize=10;" parent="7j9jm5iTzWrUl_is-yhY-63" vertex="1">
          <mxGeometry x="10" y="140" width="140" height="250" as="geometry">
            <mxRectangle x="10" y="140" width="80" height="30" as="alternateBounds" />
          </mxGeometry>
        </mxCell>
        <mxCell id="7j9jm5iTzWrUl_is-yhY-66" value="VNF" style="swimlane;whiteSpace=wrap;html=1;startSize=10;" parent="7j9jm5iTzWrUl_is-yhY-65" vertex="1">
          <mxGeometry x="10" y="70" width="120" height="70" as="geometry">
            <mxRectangle x="10" y="79" width="70" height="30" as="alternateBounds" />
          </mxGeometry>
        </mxCell>
        <mxCell id="7j9jm5iTzWrUl_is-yhY-67" value="" style="shape=table;startSize=0;container=1;collapsible=0;childLayout=tableLayout;fontSize=15;" parent="7j9jm5iTzWrUl_is-yhY-66" vertex="1">
          <mxGeometry x="10" y="21" width="100" height="45" as="geometry" />
        </mxCell>
        <mxCell id="7j9jm5iTzWrUl_is-yhY-68" value="" style="shape=tableRow;horizontal=0;startSize=0;swimlaneHead=0;swimlaneBody=0;strokeColor=inherit;top=0;left=0;bottom=0;right=0;collapsible=0;dropTarget=0;fillColor=none;points=[[0,0.5],[1,0.5]];portConstraint=eastwest;fontSize=16;" parent="7j9jm5iTzWrUl_is-yhY-67" vertex="1">
          <mxGeometry width="100" height="15" as="geometry" />
        </mxCell>
        <mxCell id="7j9jm5iTzWrUl_is-yhY-69" value="Name" style="shape=partialRectangle;html=1;whiteSpace=wrap;connectable=0;strokeColor=inherit;overflow=hidden;fillColor=none;top=0;left=0;bottom=0;right=0;pointerEvents=1;fontSize=9;" parent="7j9jm5iTzWrUl_is-yhY-68" vertex="1">
          <mxGeometry width="34" height="15" as="geometry">
            <mxRectangle width="34" height="15" as="alternateBounds" />
          </mxGeometry>
        </mxCell>
        <mxCell id="7j9jm5iTzWrUl_is-yhY-70" value="&lt;font&gt;Type&lt;/font&gt;" style="shape=partialRectangle;html=1;whiteSpace=wrap;connectable=0;strokeColor=inherit;overflow=hidden;fillColor=none;top=0;left=0;bottom=0;right=0;pointerEvents=1;fontSize=9;" parent="7j9jm5iTzWrUl_is-yhY-68" vertex="1">
          <mxGeometry x="34" width="32" height="15" as="geometry">
            <mxRectangle width="32" height="15" as="alternateBounds" />
          </mxGeometry>
        </mxCell>
        <mxCell id="7j9jm5iTzWrUl_is-yhY-71" value="&lt;font&gt;ID&lt;/font&gt;" style="shape=partialRectangle;html=1;whiteSpace=wrap;connectable=0;strokeColor=inherit;overflow=hidden;fillColor=none;top=0;left=0;bottom=0;right=0;pointerEvents=1;fontSize=9;" parent="7j9jm5iTzWrUl_is-yhY-68" vertex="1">
          <mxGeometry x="66" width="34" height="15" as="geometry">
            <mxRectangle width="34" height="15" as="alternateBounds" />
          </mxGeometry>
        </mxCell>
        <mxCell id="7j9jm5iTzWrUl_is-yhY-72" style="shape=tableRow;horizontal=0;startSize=0;swimlaneHead=0;swimlaneBody=0;strokeColor=inherit;top=0;left=0;bottom=0;right=0;collapsible=0;dropTarget=0;fillColor=none;points=[[0,0.5],[1,0.5]];portConstraint=eastwest;fontSize=16;" parent="7j9jm5iTzWrUl_is-yhY-67" vertex="1">
          <mxGeometry y="15" width="100" height="15" as="geometry" />
        </mxCell>
        <mxCell id="7j9jm5iTzWrUl_is-yhY-73" value="Resource" style="shape=partialRectangle;html=1;whiteSpace=wrap;connectable=0;strokeColor=inherit;overflow=hidden;fillColor=none;top=0;left=0;bottom=0;right=0;pointerEvents=1;fontSize=9;rowspan=1;colspan=2;" parent="7j9jm5iTzWrUl_is-yhY-72" vertex="1">
          <mxGeometry width="66" height="15" as="geometry">
            <mxRectangle width="34" height="15" as="alternateBounds" />
          </mxGeometry>
        </mxCell>
        <mxCell id="7j9jm5iTzWrUl_is-yhY-74" style="shape=partialRectangle;html=1;whiteSpace=wrap;connectable=0;strokeColor=inherit;overflow=hidden;fillColor=none;top=0;left=0;bottom=0;right=0;pointerEvents=1;fontSize=11;" parent="7j9jm5iTzWrUl_is-yhY-72" vertex="1" visible="0">
          <mxGeometry x="34" width="32" height="15" as="geometry">
            <mxRectangle width="32" height="15" as="alternateBounds" />
          </mxGeometry>
        </mxCell>
        <mxCell id="7j9jm5iTzWrUl_is-yhY-75" value="Port" style="shape=partialRectangle;html=1;whiteSpace=wrap;connectable=0;strokeColor=inherit;overflow=hidden;fillColor=none;top=0;left=0;bottom=0;right=0;pointerEvents=1;fontSize=9;" parent="7j9jm5iTzWrUl_is-yhY-72" vertex="1">
          <mxGeometry x="66" width="34" height="15" as="geometry">
            <mxRectangle width="34" height="15" as="alternateBounds" />
          </mxGeometry>
        </mxCell>
        <mxCell id="7j9jm5iTzWrUl_is-yhY-167" style="shape=tableRow;horizontal=0;startSize=0;swimlaneHead=0;swimlaneBody=0;strokeColor=inherit;top=0;left=0;bottom=0;right=0;collapsible=0;dropTarget=0;fillColor=none;points=[[0,0.5],[1,0.5]];portConstraint=eastwest;fontSize=16;" parent="7j9jm5iTzWrUl_is-yhY-67" vertex="1">
          <mxGeometry y="30" width="100" height="15" as="geometry" />
        </mxCell>
        <mxCell id="7j9jm5iTzWrUl_is-yhY-168" value="IP" style="shape=partialRectangle;html=1;whiteSpace=wrap;connectable=0;strokeColor=inherit;overflow=hidden;fillColor=none;top=0;left=0;bottom=0;right=0;pointerEvents=1;fontSize=9;" parent="7j9jm5iTzWrUl_is-yhY-167" vertex="1">
          <mxGeometry width="34" height="15" as="geometry">
            <mxRectangle width="34" height="15" as="alternateBounds" />
          </mxGeometry>
        </mxCell>
        <mxCell id="7j9jm5iTzWrUl_is-yhY-169" style="shape=partialRectangle;html=1;whiteSpace=wrap;connectable=0;strokeColor=inherit;overflow=hidden;fillColor=none;top=0;left=0;bottom=0;right=0;pointerEvents=1;fontSize=11;" parent="7j9jm5iTzWrUl_is-yhY-167" vertex="1">
          <mxGeometry x="34" width="32" height="15" as="geometry">
            <mxRectangle width="32" height="15" as="alternateBounds" />
          </mxGeometry>
        </mxCell>
        <mxCell id="7j9jm5iTzWrUl_is-yhY-170" style="shape=partialRectangle;html=1;whiteSpace=wrap;connectable=0;strokeColor=inherit;overflow=hidden;fillColor=none;top=0;left=0;bottom=0;right=0;pointerEvents=1;fontSize=9;" parent="7j9jm5iTzWrUl_is-yhY-167" vertex="1">
          <mxGeometry x="66" width="34" height="15" as="geometry">
            <mxRectangle width="34" height="15" as="alternateBounds" />
          </mxGeometry>
        </mxCell>
        <mxCell id="7j9jm5iTzWrUl_is-yhY-76" value="VNF" style="swimlane;whiteSpace=wrap;html=1;startSize=10;" parent="7j9jm5iTzWrUl_is-yhY-65" vertex="1">
          <mxGeometry x="10" y="150" width="120" height="70" as="geometry">
            <mxRectangle x="10" y="150" width="70" height="30" as="alternateBounds" />
          </mxGeometry>
        </mxCell>
        <mxCell id="7j9jm5iTzWrUl_is-yhY-77" value="" style="shape=table;startSize=0;container=1;collapsible=0;childLayout=tableLayout;fontSize=15;" parent="7j9jm5iTzWrUl_is-yhY-76" vertex="1">
          <mxGeometry x="10" y="20" width="100" height="45" as="geometry" />
        </mxCell>
        <mxCell id="7j9jm5iTzWrUl_is-yhY-78" value="" style="shape=tableRow;horizontal=0;startSize=0;swimlaneHead=0;swimlaneBody=0;strokeColor=inherit;top=0;left=0;bottom=0;right=0;collapsible=0;dropTarget=0;fillColor=none;points=[[0,0.5],[1,0.5]];portConstraint=eastwest;fontSize=16;" parent="7j9jm5iTzWrUl_is-yhY-77" vertex="1">
          <mxGeometry width="100" height="15" as="geometry" />
        </mxCell>
        <mxCell id="7j9jm5iTzWrUl_is-yhY-79" value="Name" style="shape=partialRectangle;html=1;whiteSpace=wrap;connectable=0;strokeColor=inherit;overflow=hidden;fillColor=none;top=0;left=0;bottom=0;right=0;pointerEvents=1;fontSize=9;" parent="7j9jm5iTzWrUl_is-yhY-78" vertex="1">
          <mxGeometry width="34" height="15" as="geometry">
            <mxRectangle width="34" height="15" as="alternateBounds" />
          </mxGeometry>
        </mxCell>
        <mxCell id="7j9jm5iTzWrUl_is-yhY-80" value="&lt;font&gt;Type&lt;/font&gt;" style="shape=partialRectangle;html=1;whiteSpace=wrap;connectable=0;strokeColor=inherit;overflow=hidden;fillColor=none;top=0;left=0;bottom=0;right=0;pointerEvents=1;fontSize=9;" parent="7j9jm5iTzWrUl_is-yhY-78" vertex="1">
          <mxGeometry x="34" width="32" height="15" as="geometry">
            <mxRectangle width="32" height="15" as="alternateBounds" />
          </mxGeometry>
        </mxCell>
        <mxCell id="7j9jm5iTzWrUl_is-yhY-81" value="&lt;font&gt;ID&lt;/font&gt;" style="shape=partialRectangle;html=1;whiteSpace=wrap;connectable=0;strokeColor=inherit;overflow=hidden;fillColor=none;top=0;left=0;bottom=0;right=0;pointerEvents=1;fontSize=9;" parent="7j9jm5iTzWrUl_is-yhY-78" vertex="1">
          <mxGeometry x="66" width="34" height="15" as="geometry">
            <mxRectangle width="34" height="15" as="alternateBounds" />
          </mxGeometry>
        </mxCell>
        <mxCell id="7j9jm5iTzWrUl_is-yhY-82" style="shape=tableRow;horizontal=0;startSize=0;swimlaneHead=0;swimlaneBody=0;strokeColor=inherit;top=0;left=0;bottom=0;right=0;collapsible=0;dropTarget=0;fillColor=none;points=[[0,0.5],[1,0.5]];portConstraint=eastwest;fontSize=16;" parent="7j9jm5iTzWrUl_is-yhY-77" vertex="1">
          <mxGeometry y="15" width="100" height="15" as="geometry" />
        </mxCell>
        <mxCell id="7j9jm5iTzWrUl_is-yhY-83" value="Resource" style="shape=partialRectangle;html=1;whiteSpace=wrap;connectable=0;strokeColor=inherit;overflow=hidden;fillColor=none;top=0;left=0;bottom=0;right=0;pointerEvents=1;fontSize=9;rowspan=1;colspan=2;" parent="7j9jm5iTzWrUl_is-yhY-82" vertex="1">
          <mxGeometry width="66" height="15" as="geometry">
            <mxRectangle width="34" height="15" as="alternateBounds" />
          </mxGeometry>
        </mxCell>
        <mxCell id="7j9jm5iTzWrUl_is-yhY-84" style="shape=partialRectangle;html=1;whiteSpace=wrap;connectable=0;strokeColor=inherit;overflow=hidden;fillColor=none;top=0;left=0;bottom=0;right=0;pointerEvents=1;fontSize=11;" parent="7j9jm5iTzWrUl_is-yhY-82" vertex="1" visible="0">
          <mxGeometry x="34" width="32" height="15" as="geometry">
            <mxRectangle width="32" height="15" as="alternateBounds" />
          </mxGeometry>
        </mxCell>
        <mxCell id="7j9jm5iTzWrUl_is-yhY-85" value="Port" style="shape=partialRectangle;html=1;whiteSpace=wrap;connectable=0;strokeColor=inherit;overflow=hidden;fillColor=none;top=0;left=0;bottom=0;right=0;pointerEvents=1;fontSize=9;" parent="7j9jm5iTzWrUl_is-yhY-82" vertex="1">
          <mxGeometry x="66" width="34" height="15" as="geometry">
            <mxRectangle width="34" height="15" as="alternateBounds" />
          </mxGeometry>
        </mxCell>
        <mxCell id="7j9jm5iTzWrUl_is-yhY-171" style="shape=tableRow;horizontal=0;startSize=0;swimlaneHead=0;swimlaneBody=0;strokeColor=inherit;top=0;left=0;bottom=0;right=0;collapsible=0;dropTarget=0;fillColor=none;points=[[0,0.5],[1,0.5]];portConstraint=eastwest;fontSize=16;" parent="7j9jm5iTzWrUl_is-yhY-77" vertex="1">
          <mxGeometry y="30" width="100" height="15" as="geometry" />
        </mxCell>
        <mxCell id="7j9jm5iTzWrUl_is-yhY-172" value="IP" style="shape=partialRectangle;html=1;whiteSpace=wrap;connectable=0;strokeColor=inherit;overflow=hidden;fillColor=none;top=0;left=0;bottom=0;right=0;pointerEvents=1;fontSize=9;" parent="7j9jm5iTzWrUl_is-yhY-171" vertex="1">
          <mxGeometry width="34" height="15" as="geometry">
            <mxRectangle width="34" height="15" as="alternateBounds" />
          </mxGeometry>
        </mxCell>
        <mxCell id="7j9jm5iTzWrUl_is-yhY-173" style="shape=partialRectangle;html=1;whiteSpace=wrap;connectable=0;strokeColor=inherit;overflow=hidden;fillColor=none;top=0;left=0;bottom=0;right=0;pointerEvents=1;fontSize=11;" parent="7j9jm5iTzWrUl_is-yhY-171" vertex="1">
          <mxGeometry x="34" width="32" height="15" as="geometry">
            <mxRectangle width="32" height="15" as="alternateBounds" />
          </mxGeometry>
        </mxCell>
        <mxCell id="7j9jm5iTzWrUl_is-yhY-174" style="shape=partialRectangle;html=1;whiteSpace=wrap;connectable=0;strokeColor=inherit;overflow=hidden;fillColor=none;top=0;left=0;bottom=0;right=0;pointerEvents=1;fontSize=9;" parent="7j9jm5iTzWrUl_is-yhY-171" vertex="1">
          <mxGeometry x="66" width="34" height="15" as="geometry">
            <mxRectangle width="34" height="15" as="alternateBounds" />
          </mxGeometry>
        </mxCell>
        <mxCell id="7j9jm5iTzWrUl_is-yhY-86" value="" style="shape=table;startSize=0;container=1;collapsible=0;childLayout=tableLayout;fontSize=16;" parent="7j9jm5iTzWrUl_is-yhY-65" vertex="1">
          <mxGeometry x="10" y="20" width="120" height="40" as="geometry" />
        </mxCell>
        <mxCell id="7j9jm5iTzWrUl_is-yhY-87" value="" style="shape=tableRow;horizontal=0;startSize=0;swimlaneHead=0;swimlaneBody=0;strokeColor=inherit;top=0;left=0;bottom=0;right=0;collapsible=0;dropTarget=0;fillColor=none;points=[[0,0.5],[1,0.5]];portConstraint=eastwest;fontSize=16;" parent="7j9jm5iTzWrUl_is-yhY-86" vertex="1">
          <mxGeometry width="120" height="20" as="geometry" />
        </mxCell>
        <mxCell id="7j9jm5iTzWrUl_is-yhY-88" value="Name" style="shape=partialRectangle;html=1;whiteSpace=wrap;connectable=0;strokeColor=inherit;overflow=hidden;fillColor=none;top=0;left=0;bottom=0;right=0;pointerEvents=1;fontSize=11;" parent="7j9jm5iTzWrUl_is-yhY-87" vertex="1">
          <mxGeometry width="40" height="20" as="geometry">
            <mxRectangle width="40" height="20" as="alternateBounds" />
          </mxGeometry>
        </mxCell>
        <mxCell id="7j9jm5iTzWrUl_is-yhY-89" value="&lt;font&gt;Type&lt;/font&gt;" style="shape=partialRectangle;html=1;whiteSpace=wrap;connectable=0;strokeColor=inherit;overflow=hidden;fillColor=none;top=0;left=0;bottom=0;right=0;pointerEvents=1;fontSize=11;" parent="7j9jm5iTzWrUl_is-yhY-87" vertex="1">
          <mxGeometry x="40" width="40" height="20" as="geometry">
            <mxRectangle width="40" height="20" as="alternateBounds" />
          </mxGeometry>
        </mxCell>
        <mxCell id="7j9jm5iTzWrUl_is-yhY-90" value="&lt;font&gt;ID&lt;/font&gt;" style="shape=partialRectangle;html=1;whiteSpace=wrap;connectable=0;strokeColor=inherit;overflow=hidden;fillColor=none;top=0;left=0;bottom=0;right=0;pointerEvents=1;fontSize=11;" parent="7j9jm5iTzWrUl_is-yhY-87" vertex="1">
          <mxGeometry x="80" width="40" height="20" as="geometry">
            <mxRectangle width="40" height="20" as="alternateBounds" />
          </mxGeometry>
        </mxCell>
        <mxCell id="7j9jm5iTzWrUl_is-yhY-91" style="shape=tableRow;horizontal=0;startSize=0;swimlaneHead=0;swimlaneBody=0;strokeColor=inherit;top=0;left=0;bottom=0;right=0;collapsible=0;dropTarget=0;fillColor=none;points=[[0,0.5],[1,0.5]];portConstraint=eastwest;fontSize=16;" parent="7j9jm5iTzWrUl_is-yhY-86" vertex="1">
          <mxGeometry y="20" width="120" height="20" as="geometry" />
        </mxCell>
        <mxCell id="7j9jm5iTzWrUl_is-yhY-92" value="Resource" style="shape=partialRectangle;html=1;whiteSpace=wrap;connectable=0;strokeColor=inherit;overflow=hidden;fillColor=none;top=0;left=0;bottom=0;right=0;pointerEvents=1;fontSize=11;rowspan=1;colspan=2;" parent="7j9jm5iTzWrUl_is-yhY-91" vertex="1">
          <mxGeometry width="80" height="20" as="geometry">
            <mxRectangle width="40" height="20" as="alternateBounds" />
          </mxGeometry>
        </mxCell>
        <mxCell id="7j9jm5iTzWrUl_is-yhY-93" style="shape=partialRectangle;html=1;whiteSpace=wrap;connectable=0;strokeColor=inherit;overflow=hidden;fillColor=none;top=0;left=0;bottom=0;right=0;pointerEvents=1;fontSize=11;" parent="7j9jm5iTzWrUl_is-yhY-91" vertex="1" visible="0">
          <mxGeometry x="40" width="40" height="20" as="geometry">
            <mxRectangle width="40" height="20" as="alternateBounds" />
          </mxGeometry>
        </mxCell>
        <mxCell id="7j9jm5iTzWrUl_is-yhY-94" value="GwIP" style="shape=partialRectangle;html=1;whiteSpace=wrap;connectable=0;strokeColor=inherit;overflow=hidden;fillColor=none;top=0;left=0;bottom=0;right=0;pointerEvents=1;fontSize=11;" parent="7j9jm5iTzWrUl_is-yhY-91" vertex="1">
          <mxGeometry x="80" width="40" height="20" as="geometry">
            <mxRectangle width="40" height="20" as="alternateBounds" />
          </mxGeometry>
        </mxCell>
        <mxCell id="7j9jm5iTzWrUl_is-yhY-95" value="" style="shape=table;startSize=0;container=1;collapsible=0;childLayout=tableLayout;fontSize=16;" parent="7j9jm5iTzWrUl_is-yhY-63" vertex="1">
          <mxGeometry x="10" y="20" width="200" height="20" as="geometry" />
        </mxCell>
        <mxCell id="7j9jm5iTzWrUl_is-yhY-96" value="" style="shape=tableRow;horizontal=0;startSize=0;swimlaneHead=0;swimlaneBody=0;strokeColor=inherit;top=0;left=0;bottom=0;right=0;collapsible=0;dropTarget=0;fillColor=none;points=[[0,0.5],[1,0.5]];portConstraint=eastwest;fontSize=16;" parent="7j9jm5iTzWrUl_is-yhY-95" vertex="1">
          <mxGeometry width="200" height="20" as="geometry" />
        </mxCell>
        <mxCell id="7j9jm5iTzWrUl_is-yhY-97" value="Name" style="shape=partialRectangle;html=1;whiteSpace=wrap;connectable=0;strokeColor=inherit;overflow=hidden;fillColor=none;top=0;left=0;bottom=0;right=0;pointerEvents=1;fontSize=11;" parent="7j9jm5iTzWrUl_is-yhY-96" vertex="1">
          <mxGeometry width="40" height="20" as="geometry">
            <mxRectangle width="40" height="20" as="alternateBounds" />
          </mxGeometry>
        </mxCell>
        <mxCell id="7j9jm5iTzWrUl_is-yhY-98" value="&lt;font&gt;Type&lt;/font&gt;" style="shape=partialRectangle;html=1;whiteSpace=wrap;connectable=0;strokeColor=inherit;overflow=hidden;fillColor=none;top=0;left=0;bottom=0;right=0;pointerEvents=1;fontSize=11;" parent="7j9jm5iTzWrUl_is-yhY-96" vertex="1">
          <mxGeometry x="40" width="40" height="20" as="geometry">
            <mxRectangle width="40" height="20" as="alternateBounds" />
          </mxGeometry>
        </mxCell>
        <mxCell id="7j9jm5iTzWrUl_is-yhY-99" value="&lt;font&gt;ID&lt;/font&gt;" style="shape=partialRectangle;html=1;whiteSpace=wrap;connectable=0;strokeColor=inherit;overflow=hidden;fillColor=none;top=0;left=0;bottom=0;right=0;pointerEvents=1;fontSize=11;" parent="7j9jm5iTzWrUl_is-yhY-96" vertex="1">
          <mxGeometry x="80" width="40" height="20" as="geometry">
            <mxRectangle width="40" height="20" as="alternateBounds" />
          </mxGeometry>
        </mxCell>
        <mxCell id="7j9jm5iTzWrUl_is-yhY-100" value="Loc" style="shape=partialRectangle;html=1;whiteSpace=wrap;connectable=0;strokeColor=inherit;overflow=hidden;fillColor=none;top=0;left=0;bottom=0;right=0;pointerEvents=1;fontSize=11;" parent="7j9jm5iTzWrUl_is-yhY-96" vertex="1">
          <mxGeometry x="120" width="40" height="20" as="geometry">
            <mxRectangle width="40" height="20" as="alternateBounds" />
          </mxGeometry>
        </mxCell>
        <mxCell id="7j9jm5iTzWrUl_is-yhY-101" value="Device" style="shape=partialRectangle;html=1;whiteSpace=wrap;connectable=0;strokeColor=inherit;overflow=hidden;fillColor=none;top=0;left=0;bottom=0;right=0;pointerEvents=1;fontSize=11;" parent="7j9jm5iTzWrUl_is-yhY-96" vertex="1">
          <mxGeometry x="160" width="40" height="20" as="geometry">
            <mxRectangle width="40" height="20" as="alternateBounds" />
          </mxGeometry>
        </mxCell>
        <mxCell id="7j9jm5iTzWrUl_is-yhY-102" value="Server" style="swimlane;whiteSpace=wrap;html=1;startSize=10;" parent="7j9jm5iTzWrUl_is-yhY-63" vertex="1">
          <mxGeometry x="160" y="140" width="140" height="250" as="geometry">
            <mxRectangle x="160" y="140" width="80" height="30" as="alternateBounds" />
          </mxGeometry>
        </mxCell>
        <mxCell id="7j9jm5iTzWrUl_is-yhY-207" value="VNF" style="swimlane;whiteSpace=wrap;html=1;startSize=10;" parent="7j9jm5iTzWrUl_is-yhY-102" vertex="1">
          <mxGeometry x="10" y="70" width="120" height="70" as="geometry">
            <mxRectangle x="10" y="79" width="70" height="30" as="alternateBounds" />
          </mxGeometry>
        </mxCell>
        <mxCell id="7j9jm5iTzWrUl_is-yhY-208" value="" style="shape=table;startSize=0;container=1;collapsible=0;childLayout=tableLayout;fontSize=15;" parent="7j9jm5iTzWrUl_is-yhY-207" vertex="1">
          <mxGeometry x="10" y="21" width="100" height="45" as="geometry" />
        </mxCell>
        <mxCell id="7j9jm5iTzWrUl_is-yhY-209" value="" style="shape=tableRow;horizontal=0;startSize=0;swimlaneHead=0;swimlaneBody=0;strokeColor=inherit;top=0;left=0;bottom=0;right=0;collapsible=0;dropTarget=0;fillColor=none;points=[[0,0.5],[1,0.5]];portConstraint=eastwest;fontSize=16;" parent="7j9jm5iTzWrUl_is-yhY-208" vertex="1">
          <mxGeometry width="100" height="15" as="geometry" />
        </mxCell>
        <mxCell id="7j9jm5iTzWrUl_is-yhY-210" value="Name" style="shape=partialRectangle;html=1;whiteSpace=wrap;connectable=0;strokeColor=inherit;overflow=hidden;fillColor=none;top=0;left=0;bottom=0;right=0;pointerEvents=1;fontSize=9;" parent="7j9jm5iTzWrUl_is-yhY-209" vertex="1">
          <mxGeometry width="34" height="15" as="geometry">
            <mxRectangle width="34" height="15" as="alternateBounds" />
          </mxGeometry>
        </mxCell>
        <mxCell id="7j9jm5iTzWrUl_is-yhY-211" value="&lt;font&gt;Type&lt;/font&gt;" style="shape=partialRectangle;html=1;whiteSpace=wrap;connectable=0;strokeColor=inherit;overflow=hidden;fillColor=none;top=0;left=0;bottom=0;right=0;pointerEvents=1;fontSize=9;" parent="7j9jm5iTzWrUl_is-yhY-209" vertex="1">
          <mxGeometry x="34" width="32" height="15" as="geometry">
            <mxRectangle width="32" height="15" as="alternateBounds" />
          </mxGeometry>
        </mxCell>
        <mxCell id="7j9jm5iTzWrUl_is-yhY-212" value="&lt;font&gt;ID&lt;/font&gt;" style="shape=partialRectangle;html=1;whiteSpace=wrap;connectable=0;strokeColor=inherit;overflow=hidden;fillColor=none;top=0;left=0;bottom=0;right=0;pointerEvents=1;fontSize=9;" parent="7j9jm5iTzWrUl_is-yhY-209" vertex="1">
          <mxGeometry x="66" width="34" height="15" as="geometry">
            <mxRectangle width="34" height="15" as="alternateBounds" />
          </mxGeometry>
        </mxCell>
        <mxCell id="7j9jm5iTzWrUl_is-yhY-213" style="shape=tableRow;horizontal=0;startSize=0;swimlaneHead=0;swimlaneBody=0;strokeColor=inherit;top=0;left=0;bottom=0;right=0;collapsible=0;dropTarget=0;fillColor=none;points=[[0,0.5],[1,0.5]];portConstraint=eastwest;fontSize=16;" parent="7j9jm5iTzWrUl_is-yhY-208" vertex="1">
          <mxGeometry y="15" width="100" height="15" as="geometry" />
        </mxCell>
        <mxCell id="7j9jm5iTzWrUl_is-yhY-214" value="Resource" style="shape=partialRectangle;html=1;whiteSpace=wrap;connectable=0;strokeColor=inherit;overflow=hidden;fillColor=none;top=0;left=0;bottom=0;right=0;pointerEvents=1;fontSize=9;rowspan=1;colspan=2;" parent="7j9jm5iTzWrUl_is-yhY-213" vertex="1">
          <mxGeometry width="66" height="15" as="geometry">
            <mxRectangle width="34" height="15" as="alternateBounds" />
          </mxGeometry>
        </mxCell>
        <mxCell id="7j9jm5iTzWrUl_is-yhY-215" style="shape=partialRectangle;html=1;whiteSpace=wrap;connectable=0;strokeColor=inherit;overflow=hidden;fillColor=none;top=0;left=0;bottom=0;right=0;pointerEvents=1;fontSize=11;" parent="7j9jm5iTzWrUl_is-yhY-213" vertex="1" visible="0">
          <mxGeometry x="34" width="32" height="15" as="geometry">
            <mxRectangle width="32" height="15" as="alternateBounds" />
          </mxGeometry>
        </mxCell>
        <mxCell id="7j9jm5iTzWrUl_is-yhY-216" value="Port" style="shape=partialRectangle;html=1;whiteSpace=wrap;connectable=0;strokeColor=inherit;overflow=hidden;fillColor=none;top=0;left=0;bottom=0;right=0;pointerEvents=1;fontSize=9;" parent="7j9jm5iTzWrUl_is-yhY-213" vertex="1">
          <mxGeometry x="66" width="34" height="15" as="geometry">
            <mxRectangle width="34" height="15" as="alternateBounds" />
          </mxGeometry>
        </mxCell>
        <mxCell id="7j9jm5iTzWrUl_is-yhY-217" style="shape=tableRow;horizontal=0;startSize=0;swimlaneHead=0;swimlaneBody=0;strokeColor=inherit;top=0;left=0;bottom=0;right=0;collapsible=0;dropTarget=0;fillColor=none;points=[[0,0.5],[1,0.5]];portConstraint=eastwest;fontSize=16;" parent="7j9jm5iTzWrUl_is-yhY-208" vertex="1">
          <mxGeometry y="30" width="100" height="15" as="geometry" />
        </mxCell>
        <mxCell id="7j9jm5iTzWrUl_is-yhY-218" value="IP" style="shape=partialRectangle;html=1;whiteSpace=wrap;connectable=0;strokeColor=inherit;overflow=hidden;fillColor=none;top=0;left=0;bottom=0;right=0;pointerEvents=1;fontSize=9;" parent="7j9jm5iTzWrUl_is-yhY-217" vertex="1">
          <mxGeometry width="34" height="15" as="geometry">
            <mxRectangle width="34" height="15" as="alternateBounds" />
          </mxGeometry>
        </mxCell>
        <mxCell id="7j9jm5iTzWrUl_is-yhY-219" style="shape=partialRectangle;html=1;whiteSpace=wrap;connectable=0;strokeColor=inherit;overflow=hidden;fillColor=none;top=0;left=0;bottom=0;right=0;pointerEvents=1;fontSize=11;" parent="7j9jm5iTzWrUl_is-yhY-217" vertex="1">
          <mxGeometry x="34" width="32" height="15" as="geometry">
            <mxRectangle width="32" height="15" as="alternateBounds" />
          </mxGeometry>
        </mxCell>
        <mxCell id="7j9jm5iTzWrUl_is-yhY-220" style="shape=partialRectangle;html=1;whiteSpace=wrap;connectable=0;strokeColor=inherit;overflow=hidden;fillColor=none;top=0;left=0;bottom=0;right=0;pointerEvents=1;fontSize=9;" parent="7j9jm5iTzWrUl_is-yhY-217" vertex="1">
          <mxGeometry x="66" width="34" height="15" as="geometry">
            <mxRectangle width="34" height="15" as="alternateBounds" />
          </mxGeometry>
        </mxCell>
        <mxCell id="7j9jm5iTzWrUl_is-yhY-221" value="VNF" style="swimlane;whiteSpace=wrap;html=1;startSize=10;" parent="7j9jm5iTzWrUl_is-yhY-102" vertex="1">
          <mxGeometry x="10" y="150" width="120" height="70" as="geometry">
            <mxRectangle x="10" y="150" width="70" height="30" as="alternateBounds" />
          </mxGeometry>
        </mxCell>
        <mxCell id="7j9jm5iTzWrUl_is-yhY-222" value="" style="shape=table;startSize=0;container=1;collapsible=0;childLayout=tableLayout;fontSize=15;" parent="7j9jm5iTzWrUl_is-yhY-221" vertex="1">
          <mxGeometry x="10" y="20" width="100" height="45" as="geometry" />
        </mxCell>
        <mxCell id="7j9jm5iTzWrUl_is-yhY-223" value="" style="shape=tableRow;horizontal=0;startSize=0;swimlaneHead=0;swimlaneBody=0;strokeColor=inherit;top=0;left=0;bottom=0;right=0;collapsible=0;dropTarget=0;fillColor=none;points=[[0,0.5],[1,0.5]];portConstraint=eastwest;fontSize=16;" parent="7j9jm5iTzWrUl_is-yhY-222" vertex="1">
          <mxGeometry width="100" height="15" as="geometry" />
        </mxCell>
        <mxCell id="7j9jm5iTzWrUl_is-yhY-224" value="Name" style="shape=partialRectangle;html=1;whiteSpace=wrap;connectable=0;strokeColor=inherit;overflow=hidden;fillColor=none;top=0;left=0;bottom=0;right=0;pointerEvents=1;fontSize=9;" parent="7j9jm5iTzWrUl_is-yhY-223" vertex="1">
          <mxGeometry width="34" height="15" as="geometry">
            <mxRectangle width="34" height="15" as="alternateBounds" />
          </mxGeometry>
        </mxCell>
        <mxCell id="7j9jm5iTzWrUl_is-yhY-225" value="&lt;font&gt;Type&lt;/font&gt;" style="shape=partialRectangle;html=1;whiteSpace=wrap;connectable=0;strokeColor=inherit;overflow=hidden;fillColor=none;top=0;left=0;bottom=0;right=0;pointerEvents=1;fontSize=9;" parent="7j9jm5iTzWrUl_is-yhY-223" vertex="1">
          <mxGeometry x="34" width="32" height="15" as="geometry">
            <mxRectangle width="32" height="15" as="alternateBounds" />
          </mxGeometry>
        </mxCell>
        <mxCell id="7j9jm5iTzWrUl_is-yhY-226" value="&lt;font&gt;ID&lt;/font&gt;" style="shape=partialRectangle;html=1;whiteSpace=wrap;connectable=0;strokeColor=inherit;overflow=hidden;fillColor=none;top=0;left=0;bottom=0;right=0;pointerEvents=1;fontSize=9;" parent="7j9jm5iTzWrUl_is-yhY-223" vertex="1">
          <mxGeometry x="66" width="34" height="15" as="geometry">
            <mxRectangle width="34" height="15" as="alternateBounds" />
          </mxGeometry>
        </mxCell>
        <mxCell id="7j9jm5iTzWrUl_is-yhY-227" style="shape=tableRow;horizontal=0;startSize=0;swimlaneHead=0;swimlaneBody=0;strokeColor=inherit;top=0;left=0;bottom=0;right=0;collapsible=0;dropTarget=0;fillColor=none;points=[[0,0.5],[1,0.5]];portConstraint=eastwest;fontSize=16;" parent="7j9jm5iTzWrUl_is-yhY-222" vertex="1">
          <mxGeometry y="15" width="100" height="15" as="geometry" />
        </mxCell>
        <mxCell id="7j9jm5iTzWrUl_is-yhY-228" value="Resource" style="shape=partialRectangle;html=1;whiteSpace=wrap;connectable=0;strokeColor=inherit;overflow=hidden;fillColor=none;top=0;left=0;bottom=0;right=0;pointerEvents=1;fontSize=9;rowspan=1;colspan=2;" parent="7j9jm5iTzWrUl_is-yhY-227" vertex="1">
          <mxGeometry width="66" height="15" as="geometry">
            <mxRectangle width="34" height="15" as="alternateBounds" />
          </mxGeometry>
        </mxCell>
        <mxCell id="7j9jm5iTzWrUl_is-yhY-229" style="shape=partialRectangle;html=1;whiteSpace=wrap;connectable=0;strokeColor=inherit;overflow=hidden;fillColor=none;top=0;left=0;bottom=0;right=0;pointerEvents=1;fontSize=11;" parent="7j9jm5iTzWrUl_is-yhY-227" vertex="1" visible="0">
          <mxGeometry x="34" width="32" height="15" as="geometry">
            <mxRectangle width="32" height="15" as="alternateBounds" />
          </mxGeometry>
        </mxCell>
        <mxCell id="7j9jm5iTzWrUl_is-yhY-230" value="Port" style="shape=partialRectangle;html=1;whiteSpace=wrap;connectable=0;strokeColor=inherit;overflow=hidden;fillColor=none;top=0;left=0;bottom=0;right=0;pointerEvents=1;fontSize=9;" parent="7j9jm5iTzWrUl_is-yhY-227" vertex="1">
          <mxGeometry x="66" width="34" height="15" as="geometry">
            <mxRectangle width="34" height="15" as="alternateBounds" />
          </mxGeometry>
        </mxCell>
        <mxCell id="7j9jm5iTzWrUl_is-yhY-231" style="shape=tableRow;horizontal=0;startSize=0;swimlaneHead=0;swimlaneBody=0;strokeColor=inherit;top=0;left=0;bottom=0;right=0;collapsible=0;dropTarget=0;fillColor=none;points=[[0,0.5],[1,0.5]];portConstraint=eastwest;fontSize=16;" parent="7j9jm5iTzWrUl_is-yhY-222" vertex="1">
          <mxGeometry y="30" width="100" height="15" as="geometry" />
        </mxCell>
        <mxCell id="7j9jm5iTzWrUl_is-yhY-232" value="IP" style="shape=partialRectangle;html=1;whiteSpace=wrap;connectable=0;strokeColor=inherit;overflow=hidden;fillColor=none;top=0;left=0;bottom=0;right=0;pointerEvents=1;fontSize=9;" parent="7j9jm5iTzWrUl_is-yhY-231" vertex="1">
          <mxGeometry width="34" height="15" as="geometry">
            <mxRectangle width="34" height="15" as="alternateBounds" />
          </mxGeometry>
        </mxCell>
        <mxCell id="7j9jm5iTzWrUl_is-yhY-233" style="shape=partialRectangle;html=1;whiteSpace=wrap;connectable=0;strokeColor=inherit;overflow=hidden;fillColor=none;top=0;left=0;bottom=0;right=0;pointerEvents=1;fontSize=11;" parent="7j9jm5iTzWrUl_is-yhY-231" vertex="1">
          <mxGeometry x="34" width="32" height="15" as="geometry">
            <mxRectangle width="32" height="15" as="alternateBounds" />
          </mxGeometry>
        </mxCell>
        <mxCell id="7j9jm5iTzWrUl_is-yhY-234" style="shape=partialRectangle;html=1;whiteSpace=wrap;connectable=0;strokeColor=inherit;overflow=hidden;fillColor=none;top=0;left=0;bottom=0;right=0;pointerEvents=1;fontSize=9;" parent="7j9jm5iTzWrUl_is-yhY-231" vertex="1">
          <mxGeometry x="66" width="34" height="15" as="geometry">
            <mxRectangle width="34" height="15" as="alternateBounds" />
          </mxGeometry>
        </mxCell>
        <mxCell id="7j9jm5iTzWrUl_is-yhY-235" value="" style="shape=table;startSize=0;container=1;collapsible=0;childLayout=tableLayout;fontSize=16;" parent="7j9jm5iTzWrUl_is-yhY-102" vertex="1">
          <mxGeometry x="10" y="20" width="120" height="40" as="geometry" />
        </mxCell>
        <mxCell id="7j9jm5iTzWrUl_is-yhY-236" value="" style="shape=tableRow;horizontal=0;startSize=0;swimlaneHead=0;swimlaneBody=0;strokeColor=inherit;top=0;left=0;bottom=0;right=0;collapsible=0;dropTarget=0;fillColor=none;points=[[0,0.5],[1,0.5]];portConstraint=eastwest;fontSize=16;" parent="7j9jm5iTzWrUl_is-yhY-235" vertex="1">
          <mxGeometry width="120" height="20" as="geometry" />
        </mxCell>
        <mxCell id="7j9jm5iTzWrUl_is-yhY-237" value="Name" style="shape=partialRectangle;html=1;whiteSpace=wrap;connectable=0;strokeColor=inherit;overflow=hidden;fillColor=none;top=0;left=0;bottom=0;right=0;pointerEvents=1;fontSize=11;" parent="7j9jm5iTzWrUl_is-yhY-236" vertex="1">
          <mxGeometry width="40" height="20" as="geometry">
            <mxRectangle width="40" height="20" as="alternateBounds" />
          </mxGeometry>
        </mxCell>
        <mxCell id="7j9jm5iTzWrUl_is-yhY-238" value="&lt;font&gt;Type&lt;/font&gt;" style="shape=partialRectangle;html=1;whiteSpace=wrap;connectable=0;strokeColor=inherit;overflow=hidden;fillColor=none;top=0;left=0;bottom=0;right=0;pointerEvents=1;fontSize=11;" parent="7j9jm5iTzWrUl_is-yhY-236" vertex="1">
          <mxGeometry x="40" width="40" height="20" as="geometry">
            <mxRectangle width="40" height="20" as="alternateBounds" />
          </mxGeometry>
        </mxCell>
        <mxCell id="7j9jm5iTzWrUl_is-yhY-239" value="&lt;font&gt;ID&lt;/font&gt;" style="shape=partialRectangle;html=1;whiteSpace=wrap;connectable=0;strokeColor=inherit;overflow=hidden;fillColor=none;top=0;left=0;bottom=0;right=0;pointerEvents=1;fontSize=11;" parent="7j9jm5iTzWrUl_is-yhY-236" vertex="1">
          <mxGeometry x="80" width="40" height="20" as="geometry">
            <mxRectangle width="40" height="20" as="alternateBounds" />
          </mxGeometry>
        </mxCell>
        <mxCell id="7j9jm5iTzWrUl_is-yhY-240" style="shape=tableRow;horizontal=0;startSize=0;swimlaneHead=0;swimlaneBody=0;strokeColor=inherit;top=0;left=0;bottom=0;right=0;collapsible=0;dropTarget=0;fillColor=none;points=[[0,0.5],[1,0.5]];portConstraint=eastwest;fontSize=16;" parent="7j9jm5iTzWrUl_is-yhY-235" vertex="1">
          <mxGeometry y="20" width="120" height="20" as="geometry" />
        </mxCell>
        <mxCell id="7j9jm5iTzWrUl_is-yhY-241" value="Resource" style="shape=partialRectangle;html=1;whiteSpace=wrap;connectable=0;strokeColor=inherit;overflow=hidden;fillColor=none;top=0;left=0;bottom=0;right=0;pointerEvents=1;fontSize=11;rowspan=1;colspan=2;" parent="7j9jm5iTzWrUl_is-yhY-240" vertex="1">
          <mxGeometry width="80" height="20" as="geometry">
            <mxRectangle width="40" height="20" as="alternateBounds" />
          </mxGeometry>
        </mxCell>
        <mxCell id="7j9jm5iTzWrUl_is-yhY-242" style="shape=partialRectangle;html=1;whiteSpace=wrap;connectable=0;strokeColor=inherit;overflow=hidden;fillColor=none;top=0;left=0;bottom=0;right=0;pointerEvents=1;fontSize=11;" parent="7j9jm5iTzWrUl_is-yhY-240" vertex="1" visible="0">
          <mxGeometry x="40" width="40" height="20" as="geometry">
            <mxRectangle width="40" height="20" as="alternateBounds" />
          </mxGeometry>
        </mxCell>
        <mxCell id="7j9jm5iTzWrUl_is-yhY-243" value="GwIP" style="shape=partialRectangle;html=1;whiteSpace=wrap;connectable=0;strokeColor=inherit;overflow=hidden;fillColor=none;top=0;left=0;bottom=0;right=0;pointerEvents=1;fontSize=11;" parent="7j9jm5iTzWrUl_is-yhY-240" vertex="1">
          <mxGeometry x="80" width="40" height="20" as="geometry">
            <mxRectangle width="40" height="20" as="alternateBounds" />
          </mxGeometry>
        </mxCell>
        <mxCell id="7j9jm5iTzWrUl_is-yhY-103" value="DU+AAU" style="swimlane;whiteSpace=wrap;html=1;startSize=10;" parent="7j9jm5iTzWrUl_is-yhY-63" vertex="1">
          <mxGeometry x="310" y="140" width="140" height="110" as="geometry" />
        </mxCell>
        <mxCell id="7j9jm5iTzWrUl_is-yhY-175" value="Packet（Service）" style="swimlane;whiteSpace=wrap;html=1;startSize=10;" parent="1" vertex="1">
          <mxGeometry x="19" y="280" width="230" height="90" as="geometry">
            <mxRectangle x="180" y="140" width="140" height="30" as="alternateBounds" />
          </mxGeometry>
        </mxCell>
        <mxCell id="7j9jm5iTzWrUl_is-yhY-176" value="" style="shape=table;startSize=0;container=1;collapsible=0;childLayout=tableLayout;fontSize=16;" parent="7j9jm5iTzWrUl_is-yhY-175" vertex="1">
          <mxGeometry x="10" y="20" width="210" height="60" as="geometry" />
        </mxCell>
        <mxCell id="7j9jm5iTzWrUl_is-yhY-177" value="" style="shape=tableRow;horizontal=0;startSize=0;swimlaneHead=0;swimlaneBody=0;strokeColor=inherit;top=0;left=0;bottom=0;right=0;collapsible=0;dropTarget=0;fillColor=none;points=[[0,0.5],[1,0.5]];portConstraint=eastwest;fontSize=16;" parent="7j9jm5iTzWrUl_is-yhY-176" vertex="1">
          <mxGeometry width="210" height="20" as="geometry" />
        </mxCell>
        <mxCell id="7j9jm5iTzWrUl_is-yhY-178" value="Destination Address" style="shape=partialRectangle;html=1;whiteSpace=wrap;connectable=0;strokeColor=inherit;overflow=hidden;fillColor=none;top=0;left=0;bottom=0;right=0;pointerEvents=1;fontSize=11;" parent="7j9jm5iTzWrUl_is-yhY-177" vertex="1">
          <mxGeometry width="105" height="20" as="geometry">
            <mxRectangle width="105" height="20" as="alternateBounds" />
          </mxGeometry>
        </mxCell>
        <mxCell id="7j9jm5iTzWrUl_is-yhY-179" value="Segment Left" style="shape=partialRectangle;html=1;whiteSpace=wrap;connectable=0;strokeColor=inherit;overflow=hidden;fillColor=none;top=0;left=0;bottom=0;right=0;pointerEvents=1;fontSize=11;" parent="7j9jm5iTzWrUl_is-yhY-177" vertex="1">
          <mxGeometry x="105" width="105" height="20" as="geometry">
            <mxRectangle width="105" height="20" as="alternateBounds" />
          </mxGeometry>
        </mxCell>
        <mxCell id="7j9jm5iTzWrUl_is-yhY-201" style="shape=tableRow;horizontal=0;startSize=0;swimlaneHead=0;swimlaneBody=0;strokeColor=inherit;top=0;left=0;bottom=0;right=0;collapsible=0;dropTarget=0;fillColor=none;points=[[0,0.5],[1,0.5]];portConstraint=eastwest;fontSize=16;" parent="7j9jm5iTzWrUl_is-yhY-176" vertex="1">
          <mxGeometry y="20" width="210" height="20" as="geometry" />
        </mxCell>
        <mxCell id="7j9jm5iTzWrUl_is-yhY-202" value="Segment List" style="shape=partialRectangle;html=1;whiteSpace=wrap;connectable=0;strokeColor=inherit;overflow=hidden;fillColor=none;top=0;left=0;bottom=0;right=0;pointerEvents=1;fontSize=11;rowspan=1;colspan=2;" parent="7j9jm5iTzWrUl_is-yhY-201" vertex="1">
          <mxGeometry width="210" height="20" as="geometry">
            <mxRectangle width="105" height="20" as="alternateBounds" />
          </mxGeometry>
        </mxCell>
        <mxCell id="7j9jm5iTzWrUl_is-yhY-203" style="shape=partialRectangle;html=1;whiteSpace=wrap;connectable=0;strokeColor=inherit;overflow=hidden;fillColor=none;top=0;left=0;bottom=0;right=0;pointerEvents=1;fontSize=11;" parent="7j9jm5iTzWrUl_is-yhY-201" vertex="1" visible="0">
          <mxGeometry x="105" width="105" height="20" as="geometry">
            <mxRectangle width="105" height="20" as="alternateBounds" />
          </mxGeometry>
        </mxCell>
        <mxCell id="7j9jm5iTzWrUl_is-yhY-204" style="shape=tableRow;horizontal=0;startSize=0;swimlaneHead=0;swimlaneBody=0;strokeColor=inherit;top=0;left=0;bottom=0;right=0;collapsible=0;dropTarget=0;fillColor=none;points=[[0,0.5],[1,0.5]];portConstraint=eastwest;fontSize=16;" parent="7j9jm5iTzWrUl_is-yhY-176" vertex="1">
          <mxGeometry y="40" width="210" height="20" as="geometry" />
        </mxCell>
        <mxCell id="7j9jm5iTzWrUl_is-yhY-205" value="Payload" style="shape=partialRectangle;html=1;whiteSpace=wrap;connectable=0;strokeColor=inherit;overflow=hidden;fillColor=none;top=0;left=0;bottom=0;right=0;pointerEvents=1;fontSize=11;rowspan=1;colspan=2;" parent="7j9jm5iTzWrUl_is-yhY-204" vertex="1">
          <mxGeometry width="210" height="20" as="geometry">
            <mxRectangle width="105" height="20" as="alternateBounds" />
          </mxGeometry>
        </mxCell>
        <mxCell id="7j9jm5iTzWrUl_is-yhY-206" style="shape=partialRectangle;html=1;whiteSpace=wrap;connectable=0;strokeColor=inherit;overflow=hidden;fillColor=none;top=0;left=0;bottom=0;right=0;pointerEvents=1;fontSize=11;" parent="7j9jm5iTzWrUl_is-yhY-204" vertex="1" visible="0">
          <mxGeometry x="105" width="105" height="20" as="geometry">
            <mxRectangle width="105" height="20" as="alternateBounds" />
          </mxGeometry>
        </mxCell>
        <mxCell id="KW3MqHs8nQNLPmcPefkI-1" value="" style="shape=table;startSize=0;container=1;collapsible=0;childLayout=tableLayout;fontSize=16;" parent="1" vertex="1">
          <mxGeometry x="600" y="400" width="120" height="80" as="geometry" />
        </mxCell>
        <mxCell id="KW3MqHs8nQNLPmcPefkI-2" value="" style="shape=tableRow;horizontal=0;startSize=0;swimlaneHead=0;swimlaneBody=0;strokeColor=inherit;top=0;left=0;bottom=0;right=0;collapsible=0;dropTarget=0;fillColor=none;points=[[0,0.5],[1,0.5]];portConstraint=eastwest;fontSize=16;" parent="KW3MqHs8nQNLPmcPefkI-1" vertex="1">
          <mxGeometry width="120" height="20" as="geometry" />
        </mxCell>
        <mxCell id="KW3MqHs8nQNLPmcPefkI-3" value="Name" style="shape=partialRectangle;html=1;whiteSpace=wrap;connectable=0;strokeColor=inherit;overflow=hidden;fillColor=none;top=0;left=0;bottom=0;right=0;pointerEvents=1;fontSize=11;" parent="KW3MqHs8nQNLPmcPefkI-2" vertex="1">
          <mxGeometry width="40" height="20" as="geometry">
            <mxRectangle width="40" height="20" as="alternateBounds" />
          </mxGeometry>
        </mxCell>
        <mxCell id="KW3MqHs8nQNLPmcPefkI-4" value="&lt;font&gt;Type&lt;/font&gt;" style="shape=partialRectangle;html=1;whiteSpace=wrap;connectable=0;strokeColor=inherit;overflow=hidden;fillColor=none;top=0;left=0;bottom=0;right=0;pointerEvents=1;fontSize=11;" parent="KW3MqHs8nQNLPmcPefkI-2" vertex="1">
          <mxGeometry x="40" width="40" height="20" as="geometry">
            <mxRectangle width="40" height="20" as="alternateBounds" />
          </mxGeometry>
        </mxCell>
        <mxCell id="KW3MqHs8nQNLPmcPefkI-5" value="&lt;font&gt;ID&lt;/font&gt;" style="shape=partialRectangle;html=1;whiteSpace=wrap;connectable=0;strokeColor=inherit;overflow=hidden;fillColor=none;top=0;left=0;bottom=0;right=0;pointerEvents=1;fontSize=11;" parent="KW3MqHs8nQNLPmcPefkI-2" vertex="1">
          <mxGeometry x="80" width="40" height="20" as="geometry">
            <mxRectangle width="40" height="20" as="alternateBounds" />
          </mxGeometry>
        </mxCell>
        <mxCell id="KW3MqHs8nQNLPmcPefkI-20" style="shape=tableRow;horizontal=0;startSize=0;swimlaneHead=0;swimlaneBody=0;strokeColor=inherit;top=0;left=0;bottom=0;right=0;collapsible=0;dropTarget=0;fillColor=none;points=[[0,0.5],[1,0.5]];portConstraint=eastwest;fontSize=16;" parent="KW3MqHs8nQNLPmcPefkI-1" vertex="1">
          <mxGeometry y="20" width="120" height="20" as="geometry" />
        </mxCell>
        <mxCell id="KW3MqHs8nQNLPmcPefkI-21" value="GwIP" style="shape=partialRectangle;html=1;whiteSpace=wrap;connectable=0;strokeColor=inherit;overflow=hidden;fillColor=none;top=0;left=0;bottom=0;right=0;pointerEvents=1;fontSize=11;rowspan=1;colspan=3;" parent="KW3MqHs8nQNLPmcPefkI-20" vertex="1">
          <mxGeometry width="120" height="20" as="geometry">
            <mxRectangle width="40" height="20" as="alternateBounds" />
          </mxGeometry>
        </mxCell>
        <mxCell id="KW3MqHs8nQNLPmcPefkI-22" style="shape=partialRectangle;html=1;whiteSpace=wrap;connectable=0;strokeColor=inherit;overflow=hidden;fillColor=none;top=0;left=0;bottom=0;right=0;pointerEvents=1;fontSize=11;" parent="KW3MqHs8nQNLPmcPefkI-20" vertex="1" visible="0">
          <mxGeometry x="40" width="40" height="20" as="geometry">
            <mxRectangle width="40" height="20" as="alternateBounds" />
          </mxGeometry>
        </mxCell>
        <mxCell id="KW3MqHs8nQNLPmcPefkI-23" style="shape=partialRectangle;html=1;whiteSpace=wrap;connectable=0;strokeColor=inherit;overflow=hidden;fillColor=none;top=0;left=0;bottom=0;right=0;pointerEvents=1;fontSize=11;" parent="KW3MqHs8nQNLPmcPefkI-20" vertex="1" visible="0">
          <mxGeometry x="80" width="40" height="20" as="geometry">
            <mxRectangle width="40" height="20" as="alternateBounds" />
          </mxGeometry>
        </mxCell>
        <mxCell id="0NUk9SD4DtcgiHqRZ5kP-2" style="shape=tableRow;horizontal=0;startSize=0;swimlaneHead=0;swimlaneBody=0;strokeColor=inherit;top=0;left=0;bottom=0;right=0;collapsible=0;dropTarget=0;fillColor=none;points=[[0,0.5],[1,0.5]];portConstraint=eastwest;fontSize=16;" vertex="1" parent="KW3MqHs8nQNLPmcPefkI-1">
          <mxGeometry y="40" width="120" height="20" as="geometry" />
        </mxCell>
        <mxCell id="0NUk9SD4DtcgiHqRZ5kP-3" value="Port" style="shape=partialRectangle;html=1;whiteSpace=wrap;connectable=0;strokeColor=inherit;overflow=hidden;fillColor=none;top=0;left=0;bottom=0;right=0;pointerEvents=1;fontSize=11;rowspan=1;colspan=3;" vertex="1" parent="0NUk9SD4DtcgiHqRZ5kP-2">
          <mxGeometry width="120" height="20" as="geometry">
            <mxRectangle width="40" height="20" as="alternateBounds" />
          </mxGeometry>
        </mxCell>
        <mxCell id="0NUk9SD4DtcgiHqRZ5kP-4" style="shape=partialRectangle;html=1;whiteSpace=wrap;connectable=0;strokeColor=inherit;overflow=hidden;fillColor=none;top=0;left=0;bottom=0;right=0;pointerEvents=1;fontSize=11;" vertex="1" visible="0" parent="0NUk9SD4DtcgiHqRZ5kP-2">
          <mxGeometry x="40" width="40" height="20" as="geometry">
            <mxRectangle width="40" height="20" as="alternateBounds" />
          </mxGeometry>
        </mxCell>
        <mxCell id="0NUk9SD4DtcgiHqRZ5kP-5" style="shape=partialRectangle;html=1;whiteSpace=wrap;connectable=0;strokeColor=inherit;overflow=hidden;fillColor=none;top=0;left=0;bottom=0;right=0;pointerEvents=1;fontSize=11;" vertex="1" visible="0" parent="0NUk9SD4DtcgiHqRZ5kP-2">
          <mxGeometry x="80" width="40" height="20" as="geometry">
            <mxRectangle width="40" height="20" as="alternateBounds" />
          </mxGeometry>
        </mxCell>
        <mxCell id="0NUk9SD4DtcgiHqRZ5kP-6" style="shape=tableRow;horizontal=0;startSize=0;swimlaneHead=0;swimlaneBody=0;strokeColor=inherit;top=0;left=0;bottom=0;right=0;collapsible=0;dropTarget=0;fillColor=none;points=[[0,0.5],[1,0.5]];portConstraint=eastwest;fontSize=16;" vertex="1" parent="KW3MqHs8nQNLPmcPefkI-1">
          <mxGeometry y="60" width="120" height="20" as="geometry" />
        </mxCell>
        <mxCell id="0NUk9SD4DtcgiHqRZ5kP-7" value="Radio" style="shape=partialRectangle;html=1;whiteSpace=wrap;connectable=0;strokeColor=inherit;overflow=hidden;fillColor=none;top=0;left=0;bottom=0;right=0;pointerEvents=1;fontSize=11;rowspan=1;colspan=3;" vertex="1" parent="0NUk9SD4DtcgiHqRZ5kP-6">
          <mxGeometry width="120" height="20" as="geometry">
            <mxRectangle width="40" height="20" as="alternateBounds" />
          </mxGeometry>
        </mxCell>
        <mxCell id="0NUk9SD4DtcgiHqRZ5kP-8" style="shape=partialRectangle;html=1;whiteSpace=wrap;connectable=0;strokeColor=inherit;overflow=hidden;fillColor=none;top=0;left=0;bottom=0;right=0;pointerEvents=1;fontSize=11;" vertex="1" visible="0" parent="0NUk9SD4DtcgiHqRZ5kP-6">
          <mxGeometry x="40" width="40" height="20" as="geometry">
            <mxRectangle width="40" height="20" as="alternateBounds" />
          </mxGeometry>
        </mxCell>
        <mxCell id="0NUk9SD4DtcgiHqRZ5kP-9" style="shape=partialRectangle;html=1;whiteSpace=wrap;connectable=0;strokeColor=inherit;overflow=hidden;fillColor=none;top=0;left=0;bottom=0;right=0;pointerEvents=1;fontSize=11;" vertex="1" visible="0" parent="0NUk9SD4DtcgiHqRZ5kP-6">
          <mxGeometry x="80" width="40" height="20" as="geometry">
            <mxRectangle width="40" height="20" as="alternateBounds" />
          </mxGeometry>
        </mxCell>
        <mxCell id="0NUk9SD4DtcgiHqRZ5kP-42" value="Vim1(192.168.1.0)" style="shape=table;startSize=20;container=1;collapsible=0;childLayout=tableLayout;strokeColor=default;fontSize=12;" vertex="1" parent="1">
          <mxGeometry x="10" y="960" width="150" height="80" as="geometry" />
        </mxCell>
        <mxCell id="0NUk9SD4DtcgiHqRZ5kP-43" value="" style="shape=tableRow;horizontal=0;startSize=0;swimlaneHead=0;swimlaneBody=0;strokeColor=inherit;top=0;left=0;bottom=0;right=0;collapsible=0;dropTarget=0;fillColor=none;points=[[0,0.5],[1,0.5]];portConstraint=eastwest;fontSize=16;" vertex="1" parent="0NUk9SD4DtcgiHqRZ5kP-42">
          <mxGeometry y="20" width="150" height="20" as="geometry" />
        </mxCell>
        <mxCell id="0NUk9SD4DtcgiHqRZ5kP-44" value="Switch" style="shape=partialRectangle;html=1;whiteSpace=wrap;connectable=0;strokeColor=inherit;overflow=hidden;fillColor=none;top=0;left=0;bottom=0;right=0;pointerEvents=1;fontSize=12;" vertex="1" parent="0NUk9SD4DtcgiHqRZ5kP-43">
          <mxGeometry width="50" height="20" as="geometry">
            <mxRectangle width="50" height="20" as="alternateBounds" />
          </mxGeometry>
        </mxCell>
        <mxCell id="0NUk9SD4DtcgiHqRZ5kP-45" value="192.168.1.1" style="shape=partialRectangle;html=1;whiteSpace=wrap;connectable=0;strokeColor=inherit;overflow=hidden;fillColor=none;top=0;left=0;bottom=0;right=0;pointerEvents=1;fontSize=12;" vertex="1" parent="0NUk9SD4DtcgiHqRZ5kP-43">
          <mxGeometry x="50" width="100" height="20" as="geometry">
            <mxRectangle width="100" height="20" as="alternateBounds" />
          </mxGeometry>
        </mxCell>
        <mxCell id="0NUk9SD4DtcgiHqRZ5kP-47" value="" style="shape=tableRow;horizontal=0;startSize=0;swimlaneHead=0;swimlaneBody=0;strokeColor=inherit;top=0;left=0;bottom=0;right=0;collapsible=0;dropTarget=0;fillColor=none;points=[[0,0.5],[1,0.5]];portConstraint=eastwest;fontSize=16;" vertex="1" parent="0NUk9SD4DtcgiHqRZ5kP-42">
          <mxGeometry y="40" width="150" height="20" as="geometry" />
        </mxCell>
        <mxCell id="0NUk9SD4DtcgiHqRZ5kP-48" value="DuAuu" style="shape=partialRectangle;html=1;whiteSpace=wrap;connectable=0;strokeColor=inherit;overflow=hidden;fillColor=none;top=0;left=0;bottom=0;right=0;pointerEvents=1;fontSize=12;" vertex="1" parent="0NUk9SD4DtcgiHqRZ5kP-47">
          <mxGeometry width="50" height="20" as="geometry">
            <mxRectangle width="50" height="20" as="alternateBounds" />
          </mxGeometry>
        </mxCell>
        <mxCell id="0NUk9SD4DtcgiHqRZ5kP-49" value="192.168.1.10" style="shape=partialRectangle;html=1;whiteSpace=wrap;connectable=0;strokeColor=inherit;overflow=hidden;fillColor=none;top=0;left=0;bottom=0;right=0;pointerEvents=1;fontSize=12;" vertex="1" parent="0NUk9SD4DtcgiHqRZ5kP-47">
          <mxGeometry x="50" width="100" height="20" as="geometry">
            <mxRectangle width="100" height="20" as="alternateBounds" />
          </mxGeometry>
        </mxCell>
        <mxCell id="0NUk9SD4DtcgiHqRZ5kP-51" value="" style="shape=tableRow;horizontal=0;startSize=0;swimlaneHead=0;swimlaneBody=0;strokeColor=inherit;top=0;left=0;bottom=0;right=0;collapsible=0;dropTarget=0;fillColor=none;points=[[0,0.5],[1,0.5]];portConstraint=eastwest;fontSize=16;" vertex="1" parent="0NUk9SD4DtcgiHqRZ5kP-42">
          <mxGeometry y="60" width="150" height="20" as="geometry" />
        </mxCell>
        <mxCell id="0NUk9SD4DtcgiHqRZ5kP-52" value="Vnf1" style="shape=partialRectangle;html=1;whiteSpace=wrap;connectable=0;strokeColor=inherit;overflow=hidden;fillColor=none;top=0;left=0;bottom=0;right=0;pointerEvents=1;fontSize=12;" vertex="1" parent="0NUk9SD4DtcgiHqRZ5kP-51">
          <mxGeometry width="50" height="20" as="geometry">
            <mxRectangle width="50" height="20" as="alternateBounds" />
          </mxGeometry>
        </mxCell>
        <mxCell id="0NUk9SD4DtcgiHqRZ5kP-53" value="192.168.1.11" style="shape=partialRectangle;html=1;whiteSpace=wrap;connectable=0;strokeColor=inherit;overflow=hidden;fillColor=none;top=0;left=0;bottom=0;right=0;pointerEvents=1;fontSize=12;" vertex="1" parent="0NUk9SD4DtcgiHqRZ5kP-51">
          <mxGeometry x="50" width="100" height="20" as="geometry">
            <mxRectangle width="100" height="20" as="alternateBounds" />
          </mxGeometry>
        </mxCell>
        <mxCell id="0NUk9SD4DtcgiHqRZ5kP-55" value="Vim2(192.168.2.0)" style="shape=table;startSize=20;container=1;collapsible=0;childLayout=tableLayout;strokeColor=default;fontSize=12;" vertex="1" parent="1">
          <mxGeometry x="170" y="960" width="150" height="80" as="geometry" />
        </mxCell>
        <mxCell id="0NUk9SD4DtcgiHqRZ5kP-56" value="" style="shape=tableRow;horizontal=0;startSize=0;swimlaneHead=0;swimlaneBody=0;strokeColor=inherit;top=0;left=0;bottom=0;right=0;collapsible=0;dropTarget=0;fillColor=none;points=[[0,0.5],[1,0.5]];portConstraint=eastwest;fontSize=16;" vertex="1" parent="0NUk9SD4DtcgiHqRZ5kP-55">
          <mxGeometry y="20" width="150" height="20" as="geometry" />
        </mxCell>
        <mxCell id="0NUk9SD4DtcgiHqRZ5kP-57" value="Switch" style="shape=partialRectangle;html=1;whiteSpace=wrap;connectable=0;strokeColor=inherit;overflow=hidden;fillColor=none;top=0;left=0;bottom=0;right=0;pointerEvents=1;fontSize=12;" vertex="1" parent="0NUk9SD4DtcgiHqRZ5kP-56">
          <mxGeometry width="50" height="20" as="geometry">
            <mxRectangle width="50" height="20" as="alternateBounds" />
          </mxGeometry>
        </mxCell>
        <mxCell id="0NUk9SD4DtcgiHqRZ5kP-58" value="192.168.2.1" style="shape=partialRectangle;html=1;whiteSpace=wrap;connectable=0;strokeColor=inherit;overflow=hidden;fillColor=none;top=0;left=0;bottom=0;right=0;pointerEvents=1;fontSize=12;" vertex="1" parent="0NUk9SD4DtcgiHqRZ5kP-56">
          <mxGeometry x="50" width="100" height="20" as="geometry">
            <mxRectangle width="100" height="20" as="alternateBounds" />
          </mxGeometry>
        </mxCell>
        <mxCell id="0NUk9SD4DtcgiHqRZ5kP-59" value="" style="shape=tableRow;horizontal=0;startSize=0;swimlaneHead=0;swimlaneBody=0;strokeColor=inherit;top=0;left=0;bottom=0;right=0;collapsible=0;dropTarget=0;fillColor=none;points=[[0,0.5],[1,0.5]];portConstraint=eastwest;fontSize=16;" vertex="1" parent="0NUk9SD4DtcgiHqRZ5kP-55">
          <mxGeometry y="40" width="150" height="20" as="geometry" />
        </mxCell>
        <mxCell id="0NUk9SD4DtcgiHqRZ5kP-60" value="DuAuu" style="shape=partialRectangle;html=1;whiteSpace=wrap;connectable=0;strokeColor=inherit;overflow=hidden;fillColor=none;top=0;left=0;bottom=0;right=0;pointerEvents=1;fontSize=12;" vertex="1" parent="0NUk9SD4DtcgiHqRZ5kP-59">
          <mxGeometry width="50" height="20" as="geometry">
            <mxRectangle width="50" height="20" as="alternateBounds" />
          </mxGeometry>
        </mxCell>
        <mxCell id="0NUk9SD4DtcgiHqRZ5kP-61" value="192.168.2.10" style="shape=partialRectangle;html=1;whiteSpace=wrap;connectable=0;strokeColor=inherit;overflow=hidden;fillColor=none;top=0;left=0;bottom=0;right=0;pointerEvents=1;fontSize=12;" vertex="1" parent="0NUk9SD4DtcgiHqRZ5kP-59">
          <mxGeometry x="50" width="100" height="20" as="geometry">
            <mxRectangle width="100" height="20" as="alternateBounds" />
          </mxGeometry>
        </mxCell>
        <mxCell id="0NUk9SD4DtcgiHqRZ5kP-62" value="" style="shape=tableRow;horizontal=0;startSize=0;swimlaneHead=0;swimlaneBody=0;strokeColor=inherit;top=0;left=0;bottom=0;right=0;collapsible=0;dropTarget=0;fillColor=none;points=[[0,0.5],[1,0.5]];portConstraint=eastwest;fontSize=16;" vertex="1" parent="0NUk9SD4DtcgiHqRZ5kP-55">
          <mxGeometry y="60" width="150" height="20" as="geometry" />
        </mxCell>
        <mxCell id="0NUk9SD4DtcgiHqRZ5kP-63" value="Vnf1" style="shape=partialRectangle;html=1;whiteSpace=wrap;connectable=0;strokeColor=inherit;overflow=hidden;fillColor=none;top=0;left=0;bottom=0;right=0;pointerEvents=1;fontSize=12;" vertex="1" parent="0NUk9SD4DtcgiHqRZ5kP-62">
          <mxGeometry width="50" height="20" as="geometry">
            <mxRectangle width="50" height="20" as="alternateBounds" />
          </mxGeometry>
        </mxCell>
        <mxCell id="0NUk9SD4DtcgiHqRZ5kP-64" value="192.168.2.11" style="shape=partialRectangle;html=1;whiteSpace=wrap;connectable=0;strokeColor=inherit;overflow=hidden;fillColor=none;top=0;left=0;bottom=0;right=0;pointerEvents=1;fontSize=12;" vertex="1" parent="0NUk9SD4DtcgiHqRZ5kP-62">
          <mxGeometry x="50" width="100" height="20" as="geometry">
            <mxRectangle width="100" height="20" as="alternateBounds" />
          </mxGeometry>
        </mxCell>
        <mxCell id="0NUk9SD4DtcgiHqRZ5kP-77" value="Vim3(192.168.3.0)" style="shape=table;startSize=20;container=1;collapsible=0;childLayout=tableLayout;strokeColor=default;fontSize=12;" vertex="1" parent="1">
          <mxGeometry x="330" y="960" width="150" height="80" as="geometry" />
        </mxCell>
        <mxCell id="0NUk9SD4DtcgiHqRZ5kP-78" value="" style="shape=tableRow;horizontal=0;startSize=0;swimlaneHead=0;swimlaneBody=0;strokeColor=inherit;top=0;left=0;bottom=0;right=0;collapsible=0;dropTarget=0;fillColor=none;points=[[0,0.5],[1,0.5]];portConstraint=eastwest;fontSize=16;" vertex="1" parent="0NUk9SD4DtcgiHqRZ5kP-77">
          <mxGeometry y="20" width="150" height="20" as="geometry" />
        </mxCell>
        <mxCell id="0NUk9SD4DtcgiHqRZ5kP-79" value="Switch" style="shape=partialRectangle;html=1;whiteSpace=wrap;connectable=0;strokeColor=inherit;overflow=hidden;fillColor=none;top=0;left=0;bottom=0;right=0;pointerEvents=1;fontSize=12;" vertex="1" parent="0NUk9SD4DtcgiHqRZ5kP-78">
          <mxGeometry width="50" height="20" as="geometry">
            <mxRectangle width="50" height="20" as="alternateBounds" />
          </mxGeometry>
        </mxCell>
        <mxCell id="0NUk9SD4DtcgiHqRZ5kP-80" value="192.168.3.1" style="shape=partialRectangle;html=1;whiteSpace=wrap;connectable=0;strokeColor=inherit;overflow=hidden;fillColor=none;top=0;left=0;bottom=0;right=0;pointerEvents=1;fontSize=12;" vertex="1" parent="0NUk9SD4DtcgiHqRZ5kP-78">
          <mxGeometry x="50" width="100" height="20" as="geometry">
            <mxRectangle width="100" height="20" as="alternateBounds" />
          </mxGeometry>
        </mxCell>
        <mxCell id="0NUk9SD4DtcgiHqRZ5kP-81" value="" style="shape=tableRow;horizontal=0;startSize=0;swimlaneHead=0;swimlaneBody=0;strokeColor=inherit;top=0;left=0;bottom=0;right=0;collapsible=0;dropTarget=0;fillColor=none;points=[[0,0.5],[1,0.5]];portConstraint=eastwest;fontSize=16;" vertex="1" parent="0NUk9SD4DtcgiHqRZ5kP-77">
          <mxGeometry y="40" width="150" height="20" as="geometry" />
        </mxCell>
        <mxCell id="0NUk9SD4DtcgiHqRZ5kP-82" value="DuAuu" style="shape=partialRectangle;html=1;whiteSpace=wrap;connectable=0;strokeColor=inherit;overflow=hidden;fillColor=none;top=0;left=0;bottom=0;right=0;pointerEvents=1;fontSize=12;" vertex="1" parent="0NUk9SD4DtcgiHqRZ5kP-81">
          <mxGeometry width="50" height="20" as="geometry">
            <mxRectangle width="50" height="20" as="alternateBounds" />
          </mxGeometry>
        </mxCell>
        <mxCell id="0NUk9SD4DtcgiHqRZ5kP-83" value="192.168.3.10" style="shape=partialRectangle;html=1;whiteSpace=wrap;connectable=0;strokeColor=inherit;overflow=hidden;fillColor=none;top=0;left=0;bottom=0;right=0;pointerEvents=1;fontSize=12;" vertex="1" parent="0NUk9SD4DtcgiHqRZ5kP-81">
          <mxGeometry x="50" width="100" height="20" as="geometry">
            <mxRectangle width="100" height="20" as="alternateBounds" />
          </mxGeometry>
        </mxCell>
        <mxCell id="0NUk9SD4DtcgiHqRZ5kP-84" value="" style="shape=tableRow;horizontal=0;startSize=0;swimlaneHead=0;swimlaneBody=0;strokeColor=inherit;top=0;left=0;bottom=0;right=0;collapsible=0;dropTarget=0;fillColor=none;points=[[0,0.5],[1,0.5]];portConstraint=eastwest;fontSize=16;" vertex="1" parent="0NUk9SD4DtcgiHqRZ5kP-77">
          <mxGeometry y="60" width="150" height="20" as="geometry" />
        </mxCell>
        <mxCell id="0NUk9SD4DtcgiHqRZ5kP-85" value="Vnf1" style="shape=partialRectangle;html=1;whiteSpace=wrap;connectable=0;strokeColor=inherit;overflow=hidden;fillColor=none;top=0;left=0;bottom=0;right=0;pointerEvents=1;fontSize=12;" vertex="1" parent="0NUk9SD4DtcgiHqRZ5kP-84">
          <mxGeometry width="50" height="20" as="geometry">
            <mxRectangle width="50" height="20" as="alternateBounds" />
          </mxGeometry>
        </mxCell>
        <mxCell id="0NUk9SD4DtcgiHqRZ5kP-86" value="192.168.3.11" style="shape=partialRectangle;html=1;whiteSpace=wrap;connectable=0;strokeColor=inherit;overflow=hidden;fillColor=none;top=0;left=0;bottom=0;right=0;pointerEvents=1;fontSize=12;" vertex="1" parent="0NUk9SD4DtcgiHqRZ5kP-84">
          <mxGeometry x="50" width="100" height="20" as="geometry">
            <mxRectangle width="100" height="20" as="alternateBounds" />
          </mxGeometry>
        </mxCell>
        <mxCell id="0NUk9SD4DtcgiHqRZ5kP-87" value="Vim4(192.168.4.0)" style="shape=table;startSize=20;container=1;collapsible=0;childLayout=tableLayout;strokeColor=default;fontSize=12;" vertex="1" parent="1">
          <mxGeometry x="490" y="960" width="150" height="80" as="geometry" />
        </mxCell>
        <mxCell id="0NUk9SD4DtcgiHqRZ5kP-88" value="" style="shape=tableRow;horizontal=0;startSize=0;swimlaneHead=0;swimlaneBody=0;strokeColor=inherit;top=0;left=0;bottom=0;right=0;collapsible=0;dropTarget=0;fillColor=none;points=[[0,0.5],[1,0.5]];portConstraint=eastwest;fontSize=16;" vertex="1" parent="0NUk9SD4DtcgiHqRZ5kP-87">
          <mxGeometry y="20" width="150" height="20" as="geometry" />
        </mxCell>
        <mxCell id="0NUk9SD4DtcgiHqRZ5kP-89" value="Switch" style="shape=partialRectangle;html=1;whiteSpace=wrap;connectable=0;strokeColor=inherit;overflow=hidden;fillColor=none;top=0;left=0;bottom=0;right=0;pointerEvents=1;fontSize=12;" vertex="1" parent="0NUk9SD4DtcgiHqRZ5kP-88">
          <mxGeometry width="50" height="20" as="geometry">
            <mxRectangle width="50" height="20" as="alternateBounds" />
          </mxGeometry>
        </mxCell>
        <mxCell id="0NUk9SD4DtcgiHqRZ5kP-90" value="192.168.4.1" style="shape=partialRectangle;html=1;whiteSpace=wrap;connectable=0;strokeColor=inherit;overflow=hidden;fillColor=none;top=0;left=0;bottom=0;right=0;pointerEvents=1;fontSize=12;" vertex="1" parent="0NUk9SD4DtcgiHqRZ5kP-88">
          <mxGeometry x="50" width="100" height="20" as="geometry">
            <mxRectangle width="100" height="20" as="alternateBounds" />
          </mxGeometry>
        </mxCell>
        <mxCell id="0NUk9SD4DtcgiHqRZ5kP-91" value="" style="shape=tableRow;horizontal=0;startSize=0;swimlaneHead=0;swimlaneBody=0;strokeColor=inherit;top=0;left=0;bottom=0;right=0;collapsible=0;dropTarget=0;fillColor=none;points=[[0,0.5],[1,0.5]];portConstraint=eastwest;fontSize=16;" vertex="1" parent="0NUk9SD4DtcgiHqRZ5kP-87">
          <mxGeometry y="40" width="150" height="20" as="geometry" />
        </mxCell>
        <mxCell id="0NUk9SD4DtcgiHqRZ5kP-92" value="DuAuu" style="shape=partialRectangle;html=1;whiteSpace=wrap;connectable=0;strokeColor=inherit;overflow=hidden;fillColor=none;top=0;left=0;bottom=0;right=0;pointerEvents=1;fontSize=12;" vertex="1" parent="0NUk9SD4DtcgiHqRZ5kP-91">
          <mxGeometry width="50" height="20" as="geometry">
            <mxRectangle width="50" height="20" as="alternateBounds" />
          </mxGeometry>
        </mxCell>
        <mxCell id="0NUk9SD4DtcgiHqRZ5kP-93" value="192.168.4.10" style="shape=partialRectangle;html=1;whiteSpace=wrap;connectable=0;strokeColor=inherit;overflow=hidden;fillColor=none;top=0;left=0;bottom=0;right=0;pointerEvents=1;fontSize=12;" vertex="1" parent="0NUk9SD4DtcgiHqRZ5kP-91">
          <mxGeometry x="50" width="100" height="20" as="geometry">
            <mxRectangle width="100" height="20" as="alternateBounds" />
          </mxGeometry>
        </mxCell>
        <mxCell id="0NUk9SD4DtcgiHqRZ5kP-94" value="" style="shape=tableRow;horizontal=0;startSize=0;swimlaneHead=0;swimlaneBody=0;strokeColor=inherit;top=0;left=0;bottom=0;right=0;collapsible=0;dropTarget=0;fillColor=none;points=[[0,0.5],[1,0.5]];portConstraint=eastwest;fontSize=16;" vertex="1" parent="0NUk9SD4DtcgiHqRZ5kP-87">
          <mxGeometry y="60" width="150" height="20" as="geometry" />
        </mxCell>
        <mxCell id="0NUk9SD4DtcgiHqRZ5kP-95" value="Vnf1" style="shape=partialRectangle;html=1;whiteSpace=wrap;connectable=0;strokeColor=inherit;overflow=hidden;fillColor=none;top=0;left=0;bottom=0;right=0;pointerEvents=1;fontSize=12;" vertex="1" parent="0NUk9SD4DtcgiHqRZ5kP-94">
          <mxGeometry width="50" height="20" as="geometry">
            <mxRectangle width="50" height="20" as="alternateBounds" />
          </mxGeometry>
        </mxCell>
        <mxCell id="0NUk9SD4DtcgiHqRZ5kP-96" value="192.168.4.11" style="shape=partialRectangle;html=1;whiteSpace=wrap;connectable=0;strokeColor=inherit;overflow=hidden;fillColor=none;top=0;left=0;bottom=0;right=0;pointerEvents=1;fontSize=12;" vertex="1" parent="0NUk9SD4DtcgiHqRZ5kP-94">
          <mxGeometry x="50" width="100" height="20" as="geometry">
            <mxRectangle width="100" height="20" as="alternateBounds" />
          </mxGeometry>
        </mxCell>
        <mxCell id="0NUk9SD4DtcgiHqRZ5kP-97" value="Vim5(192.168.5.0)" style="shape=table;startSize=20;container=1;collapsible=0;childLayout=tableLayout;strokeColor=default;fontSize=12;" vertex="1" parent="1">
          <mxGeometry x="650" y="960" width="150" height="80" as="geometry" />
        </mxCell>
        <mxCell id="0NUk9SD4DtcgiHqRZ5kP-98" value="" style="shape=tableRow;horizontal=0;startSize=0;swimlaneHead=0;swimlaneBody=0;strokeColor=inherit;top=0;left=0;bottom=0;right=0;collapsible=0;dropTarget=0;fillColor=none;points=[[0,0.5],[1,0.5]];portConstraint=eastwest;fontSize=16;" vertex="1" parent="0NUk9SD4DtcgiHqRZ5kP-97">
          <mxGeometry y="20" width="150" height="20" as="geometry" />
        </mxCell>
        <mxCell id="0NUk9SD4DtcgiHqRZ5kP-99" value="Switch" style="shape=partialRectangle;html=1;whiteSpace=wrap;connectable=0;strokeColor=inherit;overflow=hidden;fillColor=none;top=0;left=0;bottom=0;right=0;pointerEvents=1;fontSize=12;" vertex="1" parent="0NUk9SD4DtcgiHqRZ5kP-98">
          <mxGeometry width="50" height="20" as="geometry">
            <mxRectangle width="50" height="20" as="alternateBounds" />
          </mxGeometry>
        </mxCell>
        <mxCell id="0NUk9SD4DtcgiHqRZ5kP-100" value="192.168.5.1" style="shape=partialRectangle;html=1;whiteSpace=wrap;connectable=0;strokeColor=inherit;overflow=hidden;fillColor=none;top=0;left=0;bottom=0;right=0;pointerEvents=1;fontSize=12;" vertex="1" parent="0NUk9SD4DtcgiHqRZ5kP-98">
          <mxGeometry x="50" width="100" height="20" as="geometry">
            <mxRectangle width="100" height="20" as="alternateBounds" />
          </mxGeometry>
        </mxCell>
        <mxCell id="0NUk9SD4DtcgiHqRZ5kP-101" value="" style="shape=tableRow;horizontal=0;startSize=0;swimlaneHead=0;swimlaneBody=0;strokeColor=inherit;top=0;left=0;bottom=0;right=0;collapsible=0;dropTarget=0;fillColor=none;points=[[0,0.5],[1,0.5]];portConstraint=eastwest;fontSize=16;" vertex="1" parent="0NUk9SD4DtcgiHqRZ5kP-97">
          <mxGeometry y="40" width="150" height="20" as="geometry" />
        </mxCell>
        <mxCell id="0NUk9SD4DtcgiHqRZ5kP-102" value="DuAuu" style="shape=partialRectangle;html=1;whiteSpace=wrap;connectable=0;strokeColor=inherit;overflow=hidden;fillColor=none;top=0;left=0;bottom=0;right=0;pointerEvents=1;fontSize=12;" vertex="1" parent="0NUk9SD4DtcgiHqRZ5kP-101">
          <mxGeometry width="50" height="20" as="geometry">
            <mxRectangle width="50" height="20" as="alternateBounds" />
          </mxGeometry>
        </mxCell>
        <mxCell id="0NUk9SD4DtcgiHqRZ5kP-103" value="192.168.5.10" style="shape=partialRectangle;html=1;whiteSpace=wrap;connectable=0;strokeColor=inherit;overflow=hidden;fillColor=none;top=0;left=0;bottom=0;right=0;pointerEvents=1;fontSize=12;" vertex="1" parent="0NUk9SD4DtcgiHqRZ5kP-101">
          <mxGeometry x="50" width="100" height="20" as="geometry">
            <mxRectangle width="100" height="20" as="alternateBounds" />
          </mxGeometry>
        </mxCell>
        <mxCell id="0NUk9SD4DtcgiHqRZ5kP-104" value="" style="shape=tableRow;horizontal=0;startSize=0;swimlaneHead=0;swimlaneBody=0;strokeColor=inherit;top=0;left=0;bottom=0;right=0;collapsible=0;dropTarget=0;fillColor=none;points=[[0,0.5],[1,0.5]];portConstraint=eastwest;fontSize=16;" vertex="1" parent="0NUk9SD4DtcgiHqRZ5kP-97">
          <mxGeometry y="60" width="150" height="20" as="geometry" />
        </mxCell>
        <mxCell id="0NUk9SD4DtcgiHqRZ5kP-105" value="Vnf1" style="shape=partialRectangle;html=1;whiteSpace=wrap;connectable=0;strokeColor=inherit;overflow=hidden;fillColor=none;top=0;left=0;bottom=0;right=0;pointerEvents=1;fontSize=12;" vertex="1" parent="0NUk9SD4DtcgiHqRZ5kP-104">
          <mxGeometry width="50" height="20" as="geometry">
            <mxRectangle width="50" height="20" as="alternateBounds" />
          </mxGeometry>
        </mxCell>
        <mxCell id="0NUk9SD4DtcgiHqRZ5kP-106" value="192.168.5.11" style="shape=partialRectangle;html=1;whiteSpace=wrap;connectable=0;strokeColor=inherit;overflow=hidden;fillColor=none;top=0;left=0;bottom=0;right=0;pointerEvents=1;fontSize=12;" vertex="1" parent="0NUk9SD4DtcgiHqRZ5kP-104">
          <mxGeometry x="50" width="100" height="20" as="geometry">
            <mxRectangle width="100" height="20" as="alternateBounds" />
          </mxGeometry>
        </mxCell>
        <mxCell id="0NUk9SD4DtcgiHqRZ5kP-107" value="Srv4 Pkt" style="shape=table;startSize=20;container=1;collapsible=0;childLayout=tableLayout;strokeColor=default;fontSize=12;" vertex="1" parent="1">
          <mxGeometry x="89" y="790" width="150" height="160" as="geometry" />
        </mxCell>
        <mxCell id="0NUk9SD4DtcgiHqRZ5kP-120" style="shape=tableRow;horizontal=0;startSize=0;swimlaneHead=0;swimlaneBody=0;strokeColor=inherit;top=0;left=0;bottom=0;right=0;collapsible=0;dropTarget=0;fillColor=none;points=[[0,0.5],[1,0.5]];portConstraint=eastwest;fontSize=16;" vertex="1" parent="0NUk9SD4DtcgiHqRZ5kP-107">
          <mxGeometry y="20" width="150" height="20" as="geometry" />
        </mxCell>
        <mxCell id="0NUk9SD4DtcgiHqRZ5kP-121" value="src_ip" style="shape=partialRectangle;html=1;whiteSpace=wrap;connectable=0;strokeColor=inherit;overflow=hidden;fillColor=none;top=0;left=0;bottom=0;right=0;pointerEvents=1;fontSize=12;" vertex="1" parent="0NUk9SD4DtcgiHqRZ5kP-120">
          <mxGeometry width="50" height="20" as="geometry">
            <mxRectangle width="50" height="20" as="alternateBounds" />
          </mxGeometry>
        </mxCell>
        <mxCell id="0NUk9SD4DtcgiHqRZ5kP-122" value="192.168.1.11" style="shape=partialRectangle;html=1;whiteSpace=wrap;connectable=0;strokeColor=inherit;overflow=hidden;fillColor=none;top=0;left=0;bottom=0;right=0;pointerEvents=1;fontSize=12;" vertex="1" parent="0NUk9SD4DtcgiHqRZ5kP-120">
          <mxGeometry x="50" width="100" height="20" as="geometry">
            <mxRectangle width="100" height="20" as="alternateBounds" />
          </mxGeometry>
        </mxCell>
        <mxCell id="0NUk9SD4DtcgiHqRZ5kP-117" style="shape=tableRow;horizontal=0;startSize=0;swimlaneHead=0;swimlaneBody=0;strokeColor=inherit;top=0;left=0;bottom=0;right=0;collapsible=0;dropTarget=0;fillColor=none;points=[[0,0.5],[1,0.5]];portConstraint=eastwest;fontSize=16;" vertex="1" parent="0NUk9SD4DtcgiHqRZ5kP-107">
          <mxGeometry y="40" width="150" height="20" as="geometry" />
        </mxCell>
        <mxCell id="0NUk9SD4DtcgiHqRZ5kP-118" value="dst_ip" style="shape=partialRectangle;html=1;whiteSpace=wrap;connectable=0;strokeColor=inherit;overflow=hidden;fillColor=none;top=0;left=0;bottom=0;right=0;pointerEvents=1;fontSize=12;" vertex="1" parent="0NUk9SD4DtcgiHqRZ5kP-117">
          <mxGeometry width="50" height="20" as="geometry">
            <mxRectangle width="50" height="20" as="alternateBounds" />
          </mxGeometry>
        </mxCell>
        <mxCell id="0NUk9SD4DtcgiHqRZ5kP-119" value="192.168.2.11" style="shape=partialRectangle;html=1;whiteSpace=wrap;connectable=0;strokeColor=inherit;overflow=hidden;fillColor=none;top=0;left=0;bottom=0;right=0;pointerEvents=1;fontSize=12;" vertex="1" parent="0NUk9SD4DtcgiHqRZ5kP-117">
          <mxGeometry x="50" width="100" height="20" as="geometry">
            <mxRectangle width="100" height="20" as="alternateBounds" />
          </mxGeometry>
        </mxCell>
        <mxCell id="0NUk9SD4DtcgiHqRZ5kP-108" value="" style="shape=tableRow;horizontal=0;startSize=0;swimlaneHead=0;swimlaneBody=0;strokeColor=inherit;top=0;left=0;bottom=0;right=0;collapsible=0;dropTarget=0;fillColor=none;points=[[0,0.5],[1,0.5]];portConstraint=eastwest;fontSize=16;" vertex="1" parent="0NUk9SD4DtcgiHqRZ5kP-107">
          <mxGeometry y="60" width="150" height="20" as="geometry" />
        </mxCell>
        <mxCell id="0NUk9SD4DtcgiHqRZ5kP-109" value="sl" style="shape=partialRectangle;html=1;whiteSpace=wrap;connectable=0;strokeColor=inherit;overflow=hidden;fillColor=none;top=0;left=0;bottom=0;right=0;pointerEvents=1;fontSize=12;" vertex="1" parent="0NUk9SD4DtcgiHqRZ5kP-108">
          <mxGeometry width="50" height="20" as="geometry">
            <mxRectangle width="50" height="20" as="alternateBounds" />
          </mxGeometry>
        </mxCell>
        <mxCell id="0NUk9SD4DtcgiHqRZ5kP-110" value="3" style="shape=partialRectangle;html=1;whiteSpace=wrap;connectable=0;strokeColor=inherit;overflow=hidden;fillColor=none;top=0;left=0;bottom=0;right=0;pointerEvents=1;fontSize=12;" vertex="1" parent="0NUk9SD4DtcgiHqRZ5kP-108">
          <mxGeometry x="50" width="100" height="20" as="geometry">
            <mxRectangle width="100" height="20" as="alternateBounds" />
          </mxGeometry>
        </mxCell>
        <mxCell id="0NUk9SD4DtcgiHqRZ5kP-111" value="" style="shape=tableRow;horizontal=0;startSize=0;swimlaneHead=0;swimlaneBody=0;strokeColor=inherit;top=0;left=0;bottom=0;right=0;collapsible=0;dropTarget=0;fillColor=none;points=[[0,0.5],[1,0.5]];portConstraint=eastwest;fontSize=16;" vertex="1" parent="0NUk9SD4DtcgiHqRZ5kP-107">
          <mxGeometry y="80" width="150" height="20" as="geometry" />
        </mxCell>
        <mxCell id="0NUk9SD4DtcgiHqRZ5kP-112" value="ip_3" style="shape=partialRectangle;html=1;whiteSpace=wrap;connectable=0;strokeColor=inherit;overflow=hidden;fillColor=none;top=0;left=0;bottom=0;right=0;pointerEvents=1;fontSize=12;" vertex="1" parent="0NUk9SD4DtcgiHqRZ5kP-111">
          <mxGeometry width="50" height="20" as="geometry">
            <mxRectangle width="50" height="20" as="alternateBounds" />
          </mxGeometry>
        </mxCell>
        <mxCell id="0NUk9SD4DtcgiHqRZ5kP-113" value="192.168.2.11" style="shape=partialRectangle;html=1;whiteSpace=wrap;connectable=0;strokeColor=inherit;overflow=hidden;fillColor=none;top=0;left=0;bottom=0;right=0;pointerEvents=1;fontSize=12;" vertex="1" parent="0NUk9SD4DtcgiHqRZ5kP-111">
          <mxGeometry x="50" width="100" height="20" as="geometry">
            <mxRectangle width="100" height="20" as="alternateBounds" />
          </mxGeometry>
        </mxCell>
        <mxCell id="0NUk9SD4DtcgiHqRZ5kP-114" value="" style="shape=tableRow;horizontal=0;startSize=0;swimlaneHead=0;swimlaneBody=0;strokeColor=inherit;top=0;left=0;bottom=0;right=0;collapsible=0;dropTarget=0;fillColor=none;points=[[0,0.5],[1,0.5]];portConstraint=eastwest;fontSize=16;" vertex="1" parent="0NUk9SD4DtcgiHqRZ5kP-107">
          <mxGeometry y="100" width="150" height="20" as="geometry" />
        </mxCell>
        <mxCell id="0NUk9SD4DtcgiHqRZ5kP-115" value="ip_2" style="shape=partialRectangle;html=1;whiteSpace=wrap;connectable=0;strokeColor=inherit;overflow=hidden;fillColor=none;top=0;left=0;bottom=0;right=0;pointerEvents=1;fontSize=12;" vertex="1" parent="0NUk9SD4DtcgiHqRZ5kP-114">
          <mxGeometry width="50" height="20" as="geometry">
            <mxRectangle width="50" height="20" as="alternateBounds" />
          </mxGeometry>
        </mxCell>
        <mxCell id="0NUk9SD4DtcgiHqRZ5kP-116" value="192.168.3.11" style="shape=partialRectangle;html=1;whiteSpace=wrap;connectable=0;strokeColor=inherit;overflow=hidden;fillColor=none;top=0;left=0;bottom=0;right=0;pointerEvents=1;fontSize=12;" vertex="1" parent="0NUk9SD4DtcgiHqRZ5kP-114">
          <mxGeometry x="50" width="100" height="20" as="geometry">
            <mxRectangle width="100" height="20" as="alternateBounds" />
          </mxGeometry>
        </mxCell>
        <mxCell id="0NUk9SD4DtcgiHqRZ5kP-126" style="shape=tableRow;horizontal=0;startSize=0;swimlaneHead=0;swimlaneBody=0;strokeColor=inherit;top=0;left=0;bottom=0;right=0;collapsible=0;dropTarget=0;fillColor=none;points=[[0,0.5],[1,0.5]];portConstraint=eastwest;fontSize=16;" vertex="1" parent="0NUk9SD4DtcgiHqRZ5kP-107">
          <mxGeometry y="120" width="150" height="20" as="geometry" />
        </mxCell>
        <mxCell id="0NUk9SD4DtcgiHqRZ5kP-127" value="ip_1" style="shape=partialRectangle;html=1;whiteSpace=wrap;connectable=0;strokeColor=inherit;overflow=hidden;fillColor=none;top=0;left=0;bottom=0;right=0;pointerEvents=1;fontSize=12;" vertex="1" parent="0NUk9SD4DtcgiHqRZ5kP-126">
          <mxGeometry width="50" height="20" as="geometry">
            <mxRectangle width="50" height="20" as="alternateBounds" />
          </mxGeometry>
        </mxCell>
        <mxCell id="0NUk9SD4DtcgiHqRZ5kP-128" value="192.168.4.11" style="shape=partialRectangle;html=1;whiteSpace=wrap;connectable=0;strokeColor=inherit;overflow=hidden;fillColor=none;top=0;left=0;bottom=0;right=0;pointerEvents=1;fontSize=12;" vertex="1" parent="0NUk9SD4DtcgiHqRZ5kP-126">
          <mxGeometry x="50" width="100" height="20" as="geometry">
            <mxRectangle width="100" height="20" as="alternateBounds" />
          </mxGeometry>
        </mxCell>
        <mxCell id="0NUk9SD4DtcgiHqRZ5kP-123" style="shape=tableRow;horizontal=0;startSize=0;swimlaneHead=0;swimlaneBody=0;strokeColor=inherit;top=0;left=0;bottom=0;right=0;collapsible=0;dropTarget=0;fillColor=none;points=[[0,0.5],[1,0.5]];portConstraint=eastwest;fontSize=16;" vertex="1" parent="0NUk9SD4DtcgiHqRZ5kP-107">
          <mxGeometry y="140" width="150" height="20" as="geometry" />
        </mxCell>
        <mxCell id="0NUk9SD4DtcgiHqRZ5kP-124" value="ip_0" style="shape=partialRectangle;html=1;whiteSpace=wrap;connectable=0;strokeColor=inherit;overflow=hidden;fillColor=none;top=0;left=0;bottom=0;right=0;pointerEvents=1;fontSize=12;" vertex="1" parent="0NUk9SD4DtcgiHqRZ5kP-123">
          <mxGeometry width="50" height="20" as="geometry">
            <mxRectangle width="50" height="20" as="alternateBounds" />
          </mxGeometry>
        </mxCell>
        <mxCell id="0NUk9SD4DtcgiHqRZ5kP-125" value="192.168.5.11" style="shape=partialRectangle;html=1;whiteSpace=wrap;connectable=0;strokeColor=inherit;overflow=hidden;fillColor=none;top=0;left=0;bottom=0;right=0;pointerEvents=1;fontSize=12;" vertex="1" parent="0NUk9SD4DtcgiHqRZ5kP-123">
          <mxGeometry x="50" width="100" height="20" as="geometry">
            <mxRectangle width="100" height="20" as="alternateBounds" />
          </mxGeometry>
        </mxCell>
        <mxCell id="0NUk9SD4DtcgiHqRZ5kP-129" value="Srv4 Pkt" style="shape=table;startSize=20;container=1;collapsible=0;childLayout=tableLayout;strokeColor=default;fontSize=12;" vertex="1" parent="1">
          <mxGeometry x="249" y="790" width="150" height="160" as="geometry" />
        </mxCell>
        <mxCell id="0NUk9SD4DtcgiHqRZ5kP-130" style="shape=tableRow;horizontal=0;startSize=0;swimlaneHead=0;swimlaneBody=0;strokeColor=inherit;top=0;left=0;bottom=0;right=0;collapsible=0;dropTarget=0;fillColor=none;points=[[0,0.5],[1,0.5]];portConstraint=eastwest;fontSize=16;" vertex="1" parent="0NUk9SD4DtcgiHqRZ5kP-129">
          <mxGeometry y="20" width="150" height="20" as="geometry" />
        </mxCell>
        <mxCell id="0NUk9SD4DtcgiHqRZ5kP-131" value="src_ip" style="shape=partialRectangle;html=1;whiteSpace=wrap;connectable=0;strokeColor=inherit;overflow=hidden;fillColor=none;top=0;left=0;bottom=0;right=0;pointerEvents=1;fontSize=12;" vertex="1" parent="0NUk9SD4DtcgiHqRZ5kP-130">
          <mxGeometry width="50" height="20" as="geometry">
            <mxRectangle width="50" height="20" as="alternateBounds" />
          </mxGeometry>
        </mxCell>
        <mxCell id="0NUk9SD4DtcgiHqRZ5kP-132" value="192.168.1.11" style="shape=partialRectangle;html=1;whiteSpace=wrap;connectable=0;strokeColor=inherit;overflow=hidden;fillColor=none;top=0;left=0;bottom=0;right=0;pointerEvents=1;fontSize=12;" vertex="1" parent="0NUk9SD4DtcgiHqRZ5kP-130">
          <mxGeometry x="50" width="100" height="20" as="geometry">
            <mxRectangle width="100" height="20" as="alternateBounds" />
          </mxGeometry>
        </mxCell>
        <mxCell id="0NUk9SD4DtcgiHqRZ5kP-133" style="shape=tableRow;horizontal=0;startSize=0;swimlaneHead=0;swimlaneBody=0;strokeColor=inherit;top=0;left=0;bottom=0;right=0;collapsible=0;dropTarget=0;fillColor=none;points=[[0,0.5],[1,0.5]];portConstraint=eastwest;fontSize=16;" vertex="1" parent="0NUk9SD4DtcgiHqRZ5kP-129">
          <mxGeometry y="40" width="150" height="20" as="geometry" />
        </mxCell>
        <mxCell id="0NUk9SD4DtcgiHqRZ5kP-134" value="dst_ip" style="shape=partialRectangle;html=1;whiteSpace=wrap;connectable=0;strokeColor=inherit;overflow=hidden;fillColor=none;top=0;left=0;bottom=0;right=0;pointerEvents=1;fontSize=12;" vertex="1" parent="0NUk9SD4DtcgiHqRZ5kP-133">
          <mxGeometry width="50" height="20" as="geometry">
            <mxRectangle width="50" height="20" as="alternateBounds" />
          </mxGeometry>
        </mxCell>
        <mxCell id="0NUk9SD4DtcgiHqRZ5kP-135" value="192.168.3.11" style="shape=partialRectangle;html=1;whiteSpace=wrap;connectable=0;strokeColor=inherit;overflow=hidden;fillColor=none;top=0;left=0;bottom=0;right=0;pointerEvents=1;fontSize=12;" vertex="1" parent="0NUk9SD4DtcgiHqRZ5kP-133">
          <mxGeometry x="50" width="100" height="20" as="geometry">
            <mxRectangle width="100" height="20" as="alternateBounds" />
          </mxGeometry>
        </mxCell>
        <mxCell id="0NUk9SD4DtcgiHqRZ5kP-136" value="" style="shape=tableRow;horizontal=0;startSize=0;swimlaneHead=0;swimlaneBody=0;strokeColor=inherit;top=0;left=0;bottom=0;right=0;collapsible=0;dropTarget=0;fillColor=none;points=[[0,0.5],[1,0.5]];portConstraint=eastwest;fontSize=16;" vertex="1" parent="0NUk9SD4DtcgiHqRZ5kP-129">
          <mxGeometry y="60" width="150" height="20" as="geometry" />
        </mxCell>
        <mxCell id="0NUk9SD4DtcgiHqRZ5kP-137" value="sl" style="shape=partialRectangle;html=1;whiteSpace=wrap;connectable=0;strokeColor=inherit;overflow=hidden;fillColor=none;top=0;left=0;bottom=0;right=0;pointerEvents=1;fontSize=12;" vertex="1" parent="0NUk9SD4DtcgiHqRZ5kP-136">
          <mxGeometry width="50" height="20" as="geometry">
            <mxRectangle width="50" height="20" as="alternateBounds" />
          </mxGeometry>
        </mxCell>
        <mxCell id="0NUk9SD4DtcgiHqRZ5kP-138" value="2" style="shape=partialRectangle;html=1;whiteSpace=wrap;connectable=0;strokeColor=inherit;overflow=hidden;fillColor=none;top=0;left=0;bottom=0;right=0;pointerEvents=1;fontSize=12;" vertex="1" parent="0NUk9SD4DtcgiHqRZ5kP-136">
          <mxGeometry x="50" width="100" height="20" as="geometry">
            <mxRectangle width="100" height="20" as="alternateBounds" />
          </mxGeometry>
        </mxCell>
        <mxCell id="0NUk9SD4DtcgiHqRZ5kP-139" value="" style="shape=tableRow;horizontal=0;startSize=0;swimlaneHead=0;swimlaneBody=0;strokeColor=inherit;top=0;left=0;bottom=0;right=0;collapsible=0;dropTarget=0;fillColor=none;points=[[0,0.5],[1,0.5]];portConstraint=eastwest;fontSize=16;" vertex="1" parent="0NUk9SD4DtcgiHqRZ5kP-129">
          <mxGeometry y="80" width="150" height="20" as="geometry" />
        </mxCell>
        <mxCell id="0NUk9SD4DtcgiHqRZ5kP-140" value="ip_3" style="shape=partialRectangle;html=1;whiteSpace=wrap;connectable=0;strokeColor=inherit;overflow=hidden;fillColor=none;top=0;left=0;bottom=0;right=0;pointerEvents=1;fontSize=12;" vertex="1" parent="0NUk9SD4DtcgiHqRZ5kP-139">
          <mxGeometry width="50" height="20" as="geometry">
            <mxRectangle width="50" height="20" as="alternateBounds" />
          </mxGeometry>
        </mxCell>
        <mxCell id="0NUk9SD4DtcgiHqRZ5kP-141" value="192.168.2.11" style="shape=partialRectangle;html=1;whiteSpace=wrap;connectable=0;strokeColor=inherit;overflow=hidden;fillColor=none;top=0;left=0;bottom=0;right=0;pointerEvents=1;fontSize=12;" vertex="1" parent="0NUk9SD4DtcgiHqRZ5kP-139">
          <mxGeometry x="50" width="100" height="20" as="geometry">
            <mxRectangle width="100" height="20" as="alternateBounds" />
          </mxGeometry>
        </mxCell>
        <mxCell id="0NUk9SD4DtcgiHqRZ5kP-142" value="" style="shape=tableRow;horizontal=0;startSize=0;swimlaneHead=0;swimlaneBody=0;strokeColor=inherit;top=0;left=0;bottom=0;right=0;collapsible=0;dropTarget=0;fillColor=none;points=[[0,0.5],[1,0.5]];portConstraint=eastwest;fontSize=16;" vertex="1" parent="0NUk9SD4DtcgiHqRZ5kP-129">
          <mxGeometry y="100" width="150" height="20" as="geometry" />
        </mxCell>
        <mxCell id="0NUk9SD4DtcgiHqRZ5kP-143" value="ip_2" style="shape=partialRectangle;html=1;whiteSpace=wrap;connectable=0;strokeColor=inherit;overflow=hidden;fillColor=none;top=0;left=0;bottom=0;right=0;pointerEvents=1;fontSize=12;" vertex="1" parent="0NUk9SD4DtcgiHqRZ5kP-142">
          <mxGeometry width="50" height="20" as="geometry">
            <mxRectangle width="50" height="20" as="alternateBounds" />
          </mxGeometry>
        </mxCell>
        <mxCell id="0NUk9SD4DtcgiHqRZ5kP-144" value="192.168.3.11" style="shape=partialRectangle;html=1;whiteSpace=wrap;connectable=0;strokeColor=inherit;overflow=hidden;fillColor=none;top=0;left=0;bottom=0;right=0;pointerEvents=1;fontSize=12;" vertex="1" parent="0NUk9SD4DtcgiHqRZ5kP-142">
          <mxGeometry x="50" width="100" height="20" as="geometry">
            <mxRectangle width="100" height="20" as="alternateBounds" />
          </mxGeometry>
        </mxCell>
        <mxCell id="0NUk9SD4DtcgiHqRZ5kP-145" style="shape=tableRow;horizontal=0;startSize=0;swimlaneHead=0;swimlaneBody=0;strokeColor=inherit;top=0;left=0;bottom=0;right=0;collapsible=0;dropTarget=0;fillColor=none;points=[[0,0.5],[1,0.5]];portConstraint=eastwest;fontSize=16;" vertex="1" parent="0NUk9SD4DtcgiHqRZ5kP-129">
          <mxGeometry y="120" width="150" height="20" as="geometry" />
        </mxCell>
        <mxCell id="0NUk9SD4DtcgiHqRZ5kP-146" value="ip_1" style="shape=partialRectangle;html=1;whiteSpace=wrap;connectable=0;strokeColor=inherit;overflow=hidden;fillColor=none;top=0;left=0;bottom=0;right=0;pointerEvents=1;fontSize=12;" vertex="1" parent="0NUk9SD4DtcgiHqRZ5kP-145">
          <mxGeometry width="50" height="20" as="geometry">
            <mxRectangle width="50" height="20" as="alternateBounds" />
          </mxGeometry>
        </mxCell>
        <mxCell id="0NUk9SD4DtcgiHqRZ5kP-147" value="192.168.4.11" style="shape=partialRectangle;html=1;whiteSpace=wrap;connectable=0;strokeColor=inherit;overflow=hidden;fillColor=none;top=0;left=0;bottom=0;right=0;pointerEvents=1;fontSize=12;" vertex="1" parent="0NUk9SD4DtcgiHqRZ5kP-145">
          <mxGeometry x="50" width="100" height="20" as="geometry">
            <mxRectangle width="100" height="20" as="alternateBounds" />
          </mxGeometry>
        </mxCell>
        <mxCell id="0NUk9SD4DtcgiHqRZ5kP-148" style="shape=tableRow;horizontal=0;startSize=0;swimlaneHead=0;swimlaneBody=0;strokeColor=inherit;top=0;left=0;bottom=0;right=0;collapsible=0;dropTarget=0;fillColor=none;points=[[0,0.5],[1,0.5]];portConstraint=eastwest;fontSize=16;" vertex="1" parent="0NUk9SD4DtcgiHqRZ5kP-129">
          <mxGeometry y="140" width="150" height="20" as="geometry" />
        </mxCell>
        <mxCell id="0NUk9SD4DtcgiHqRZ5kP-149" value="ip_0" style="shape=partialRectangle;html=1;whiteSpace=wrap;connectable=0;strokeColor=inherit;overflow=hidden;fillColor=none;top=0;left=0;bottom=0;right=0;pointerEvents=1;fontSize=12;" vertex="1" parent="0NUk9SD4DtcgiHqRZ5kP-148">
          <mxGeometry width="50" height="20" as="geometry">
            <mxRectangle width="50" height="20" as="alternateBounds" />
          </mxGeometry>
        </mxCell>
        <mxCell id="0NUk9SD4DtcgiHqRZ5kP-150" value="192.168.5.11" style="shape=partialRectangle;html=1;whiteSpace=wrap;connectable=0;strokeColor=inherit;overflow=hidden;fillColor=none;top=0;left=0;bottom=0;right=0;pointerEvents=1;fontSize=12;" vertex="1" parent="0NUk9SD4DtcgiHqRZ5kP-148">
          <mxGeometry x="50" width="100" height="20" as="geometry">
            <mxRectangle width="100" height="20" as="alternateBounds" />
          </mxGeometry>
        </mxCell>
        <mxCell id="0NUk9SD4DtcgiHqRZ5kP-151" value="Srv4 Pkt" style="shape=table;startSize=20;container=1;collapsible=0;childLayout=tableLayout;strokeColor=default;fontSize=12;" vertex="1" parent="1">
          <mxGeometry x="409" y="790" width="150" height="160" as="geometry" />
        </mxCell>
        <mxCell id="0NUk9SD4DtcgiHqRZ5kP-152" style="shape=tableRow;horizontal=0;startSize=0;swimlaneHead=0;swimlaneBody=0;strokeColor=inherit;top=0;left=0;bottom=0;right=0;collapsible=0;dropTarget=0;fillColor=none;points=[[0,0.5],[1,0.5]];portConstraint=eastwest;fontSize=16;" vertex="1" parent="0NUk9SD4DtcgiHqRZ5kP-151">
          <mxGeometry y="20" width="150" height="20" as="geometry" />
        </mxCell>
        <mxCell id="0NUk9SD4DtcgiHqRZ5kP-153" value="src_ip" style="shape=partialRectangle;html=1;whiteSpace=wrap;connectable=0;strokeColor=inherit;overflow=hidden;fillColor=none;top=0;left=0;bottom=0;right=0;pointerEvents=1;fontSize=12;" vertex="1" parent="0NUk9SD4DtcgiHqRZ5kP-152">
          <mxGeometry width="50" height="20" as="geometry">
            <mxRectangle width="50" height="20" as="alternateBounds" />
          </mxGeometry>
        </mxCell>
        <mxCell id="0NUk9SD4DtcgiHqRZ5kP-154" value="192.168.1.11" style="shape=partialRectangle;html=1;whiteSpace=wrap;connectable=0;strokeColor=inherit;overflow=hidden;fillColor=none;top=0;left=0;bottom=0;right=0;pointerEvents=1;fontSize=12;" vertex="1" parent="0NUk9SD4DtcgiHqRZ5kP-152">
          <mxGeometry x="50" width="100" height="20" as="geometry">
            <mxRectangle width="100" height="20" as="alternateBounds" />
          </mxGeometry>
        </mxCell>
        <mxCell id="0NUk9SD4DtcgiHqRZ5kP-155" style="shape=tableRow;horizontal=0;startSize=0;swimlaneHead=0;swimlaneBody=0;strokeColor=inherit;top=0;left=0;bottom=0;right=0;collapsible=0;dropTarget=0;fillColor=none;points=[[0,0.5],[1,0.5]];portConstraint=eastwest;fontSize=16;" vertex="1" parent="0NUk9SD4DtcgiHqRZ5kP-151">
          <mxGeometry y="40" width="150" height="20" as="geometry" />
        </mxCell>
        <mxCell id="0NUk9SD4DtcgiHqRZ5kP-156" value="dst_ip" style="shape=partialRectangle;html=1;whiteSpace=wrap;connectable=0;strokeColor=inherit;overflow=hidden;fillColor=none;top=0;left=0;bottom=0;right=0;pointerEvents=1;fontSize=12;" vertex="1" parent="0NUk9SD4DtcgiHqRZ5kP-155">
          <mxGeometry width="50" height="20" as="geometry">
            <mxRectangle width="50" height="20" as="alternateBounds" />
          </mxGeometry>
        </mxCell>
        <mxCell id="0NUk9SD4DtcgiHqRZ5kP-157" value="192.168.4.11" style="shape=partialRectangle;html=1;whiteSpace=wrap;connectable=0;strokeColor=inherit;overflow=hidden;fillColor=none;top=0;left=0;bottom=0;right=0;pointerEvents=1;fontSize=12;" vertex="1" parent="0NUk9SD4DtcgiHqRZ5kP-155">
          <mxGeometry x="50" width="100" height="20" as="geometry">
            <mxRectangle width="100" height="20" as="alternateBounds" />
          </mxGeometry>
        </mxCell>
        <mxCell id="0NUk9SD4DtcgiHqRZ5kP-158" value="" style="shape=tableRow;horizontal=0;startSize=0;swimlaneHead=0;swimlaneBody=0;strokeColor=inherit;top=0;left=0;bottom=0;right=0;collapsible=0;dropTarget=0;fillColor=none;points=[[0,0.5],[1,0.5]];portConstraint=eastwest;fontSize=16;" vertex="1" parent="0NUk9SD4DtcgiHqRZ5kP-151">
          <mxGeometry y="60" width="150" height="20" as="geometry" />
        </mxCell>
        <mxCell id="0NUk9SD4DtcgiHqRZ5kP-159" value="sl" style="shape=partialRectangle;html=1;whiteSpace=wrap;connectable=0;strokeColor=inherit;overflow=hidden;fillColor=none;top=0;left=0;bottom=0;right=0;pointerEvents=1;fontSize=12;" vertex="1" parent="0NUk9SD4DtcgiHqRZ5kP-158">
          <mxGeometry width="50" height="20" as="geometry">
            <mxRectangle width="50" height="20" as="alternateBounds" />
          </mxGeometry>
        </mxCell>
        <mxCell id="0NUk9SD4DtcgiHqRZ5kP-160" value="1" style="shape=partialRectangle;html=1;whiteSpace=wrap;connectable=0;strokeColor=inherit;overflow=hidden;fillColor=none;top=0;left=0;bottom=0;right=0;pointerEvents=1;fontSize=12;" vertex="1" parent="0NUk9SD4DtcgiHqRZ5kP-158">
          <mxGeometry x="50" width="100" height="20" as="geometry">
            <mxRectangle width="100" height="20" as="alternateBounds" />
          </mxGeometry>
        </mxCell>
        <mxCell id="0NUk9SD4DtcgiHqRZ5kP-161" value="" style="shape=tableRow;horizontal=0;startSize=0;swimlaneHead=0;swimlaneBody=0;strokeColor=inherit;top=0;left=0;bottom=0;right=0;collapsible=0;dropTarget=0;fillColor=none;points=[[0,0.5],[1,0.5]];portConstraint=eastwest;fontSize=16;" vertex="1" parent="0NUk9SD4DtcgiHqRZ5kP-151">
          <mxGeometry y="80" width="150" height="20" as="geometry" />
        </mxCell>
        <mxCell id="0NUk9SD4DtcgiHqRZ5kP-162" value="ip_3" style="shape=partialRectangle;html=1;whiteSpace=wrap;connectable=0;strokeColor=inherit;overflow=hidden;fillColor=none;top=0;left=0;bottom=0;right=0;pointerEvents=1;fontSize=12;" vertex="1" parent="0NUk9SD4DtcgiHqRZ5kP-161">
          <mxGeometry width="50" height="20" as="geometry">
            <mxRectangle width="50" height="20" as="alternateBounds" />
          </mxGeometry>
        </mxCell>
        <mxCell id="0NUk9SD4DtcgiHqRZ5kP-163" value="192.168.2.11" style="shape=partialRectangle;html=1;whiteSpace=wrap;connectable=0;strokeColor=inherit;overflow=hidden;fillColor=none;top=0;left=0;bottom=0;right=0;pointerEvents=1;fontSize=12;" vertex="1" parent="0NUk9SD4DtcgiHqRZ5kP-161">
          <mxGeometry x="50" width="100" height="20" as="geometry">
            <mxRectangle width="100" height="20" as="alternateBounds" />
          </mxGeometry>
        </mxCell>
        <mxCell id="0NUk9SD4DtcgiHqRZ5kP-164" value="" style="shape=tableRow;horizontal=0;startSize=0;swimlaneHead=0;swimlaneBody=0;strokeColor=inherit;top=0;left=0;bottom=0;right=0;collapsible=0;dropTarget=0;fillColor=none;points=[[0,0.5],[1,0.5]];portConstraint=eastwest;fontSize=16;" vertex="1" parent="0NUk9SD4DtcgiHqRZ5kP-151">
          <mxGeometry y="100" width="150" height="20" as="geometry" />
        </mxCell>
        <mxCell id="0NUk9SD4DtcgiHqRZ5kP-165" value="ip_2" style="shape=partialRectangle;html=1;whiteSpace=wrap;connectable=0;strokeColor=inherit;overflow=hidden;fillColor=none;top=0;left=0;bottom=0;right=0;pointerEvents=1;fontSize=12;" vertex="1" parent="0NUk9SD4DtcgiHqRZ5kP-164">
          <mxGeometry width="50" height="20" as="geometry">
            <mxRectangle width="50" height="20" as="alternateBounds" />
          </mxGeometry>
        </mxCell>
        <mxCell id="0NUk9SD4DtcgiHqRZ5kP-166" value="192.168.3.11" style="shape=partialRectangle;html=1;whiteSpace=wrap;connectable=0;strokeColor=inherit;overflow=hidden;fillColor=none;top=0;left=0;bottom=0;right=0;pointerEvents=1;fontSize=12;" vertex="1" parent="0NUk9SD4DtcgiHqRZ5kP-164">
          <mxGeometry x="50" width="100" height="20" as="geometry">
            <mxRectangle width="100" height="20" as="alternateBounds" />
          </mxGeometry>
        </mxCell>
        <mxCell id="0NUk9SD4DtcgiHqRZ5kP-167" style="shape=tableRow;horizontal=0;startSize=0;swimlaneHead=0;swimlaneBody=0;strokeColor=inherit;top=0;left=0;bottom=0;right=0;collapsible=0;dropTarget=0;fillColor=none;points=[[0,0.5],[1,0.5]];portConstraint=eastwest;fontSize=16;" vertex="1" parent="0NUk9SD4DtcgiHqRZ5kP-151">
          <mxGeometry y="120" width="150" height="20" as="geometry" />
        </mxCell>
        <mxCell id="0NUk9SD4DtcgiHqRZ5kP-168" value="ip_1" style="shape=partialRectangle;html=1;whiteSpace=wrap;connectable=0;strokeColor=inherit;overflow=hidden;fillColor=none;top=0;left=0;bottom=0;right=0;pointerEvents=1;fontSize=12;" vertex="1" parent="0NUk9SD4DtcgiHqRZ5kP-167">
          <mxGeometry width="50" height="20" as="geometry">
            <mxRectangle width="50" height="20" as="alternateBounds" />
          </mxGeometry>
        </mxCell>
        <mxCell id="0NUk9SD4DtcgiHqRZ5kP-169" value="192.168.4.11" style="shape=partialRectangle;html=1;whiteSpace=wrap;connectable=0;strokeColor=inherit;overflow=hidden;fillColor=none;top=0;left=0;bottom=0;right=0;pointerEvents=1;fontSize=12;" vertex="1" parent="0NUk9SD4DtcgiHqRZ5kP-167">
          <mxGeometry x="50" width="100" height="20" as="geometry">
            <mxRectangle width="100" height="20" as="alternateBounds" />
          </mxGeometry>
        </mxCell>
        <mxCell id="0NUk9SD4DtcgiHqRZ5kP-170" style="shape=tableRow;horizontal=0;startSize=0;swimlaneHead=0;swimlaneBody=0;strokeColor=inherit;top=0;left=0;bottom=0;right=0;collapsible=0;dropTarget=0;fillColor=none;points=[[0,0.5],[1,0.5]];portConstraint=eastwest;fontSize=16;" vertex="1" parent="0NUk9SD4DtcgiHqRZ5kP-151">
          <mxGeometry y="140" width="150" height="20" as="geometry" />
        </mxCell>
        <mxCell id="0NUk9SD4DtcgiHqRZ5kP-171" value="ip_0" style="shape=partialRectangle;html=1;whiteSpace=wrap;connectable=0;strokeColor=inherit;overflow=hidden;fillColor=none;top=0;left=0;bottom=0;right=0;pointerEvents=1;fontSize=12;" vertex="1" parent="0NUk9SD4DtcgiHqRZ5kP-170">
          <mxGeometry width="50" height="20" as="geometry">
            <mxRectangle width="50" height="20" as="alternateBounds" />
          </mxGeometry>
        </mxCell>
        <mxCell id="0NUk9SD4DtcgiHqRZ5kP-172" value="192.168.5.11" style="shape=partialRectangle;html=1;whiteSpace=wrap;connectable=0;strokeColor=inherit;overflow=hidden;fillColor=none;top=0;left=0;bottom=0;right=0;pointerEvents=1;fontSize=12;" vertex="1" parent="0NUk9SD4DtcgiHqRZ5kP-170">
          <mxGeometry x="50" width="100" height="20" as="geometry">
            <mxRectangle width="100" height="20" as="alternateBounds" />
          </mxGeometry>
        </mxCell>
        <mxCell id="0NUk9SD4DtcgiHqRZ5kP-173" value="Srv4 Pkt" style="shape=table;startSize=20;container=1;collapsible=0;childLayout=tableLayout;strokeColor=default;fontSize=12;" vertex="1" parent="1">
          <mxGeometry x="569" y="790" width="150" height="160" as="geometry" />
        </mxCell>
        <mxCell id="0NUk9SD4DtcgiHqRZ5kP-174" style="shape=tableRow;horizontal=0;startSize=0;swimlaneHead=0;swimlaneBody=0;strokeColor=inherit;top=0;left=0;bottom=0;right=0;collapsible=0;dropTarget=0;fillColor=none;points=[[0,0.5],[1,0.5]];portConstraint=eastwest;fontSize=16;" vertex="1" parent="0NUk9SD4DtcgiHqRZ5kP-173">
          <mxGeometry y="20" width="150" height="20" as="geometry" />
        </mxCell>
        <mxCell id="0NUk9SD4DtcgiHqRZ5kP-175" value="src_ip" style="shape=partialRectangle;html=1;whiteSpace=wrap;connectable=0;strokeColor=inherit;overflow=hidden;fillColor=none;top=0;left=0;bottom=0;right=0;pointerEvents=1;fontSize=12;" vertex="1" parent="0NUk9SD4DtcgiHqRZ5kP-174">
          <mxGeometry width="50" height="20" as="geometry">
            <mxRectangle width="50" height="20" as="alternateBounds" />
          </mxGeometry>
        </mxCell>
        <mxCell id="0NUk9SD4DtcgiHqRZ5kP-176" value="192.168.1.11" style="shape=partialRectangle;html=1;whiteSpace=wrap;connectable=0;strokeColor=inherit;overflow=hidden;fillColor=none;top=0;left=0;bottom=0;right=0;pointerEvents=1;fontSize=12;" vertex="1" parent="0NUk9SD4DtcgiHqRZ5kP-174">
          <mxGeometry x="50" width="100" height="20" as="geometry">
            <mxRectangle width="100" height="20" as="alternateBounds" />
          </mxGeometry>
        </mxCell>
        <mxCell id="0NUk9SD4DtcgiHqRZ5kP-177" style="shape=tableRow;horizontal=0;startSize=0;swimlaneHead=0;swimlaneBody=0;strokeColor=inherit;top=0;left=0;bottom=0;right=0;collapsible=0;dropTarget=0;fillColor=none;points=[[0,0.5],[1,0.5]];portConstraint=eastwest;fontSize=16;" vertex="1" parent="0NUk9SD4DtcgiHqRZ5kP-173">
          <mxGeometry y="40" width="150" height="20" as="geometry" />
        </mxCell>
        <mxCell id="0NUk9SD4DtcgiHqRZ5kP-178" value="dst_ip" style="shape=partialRectangle;html=1;whiteSpace=wrap;connectable=0;strokeColor=inherit;overflow=hidden;fillColor=none;top=0;left=0;bottom=0;right=0;pointerEvents=1;fontSize=12;" vertex="1" parent="0NUk9SD4DtcgiHqRZ5kP-177">
          <mxGeometry width="50" height="20" as="geometry">
            <mxRectangle width="50" height="20" as="alternateBounds" />
          </mxGeometry>
        </mxCell>
        <mxCell id="0NUk9SD4DtcgiHqRZ5kP-179" value="192.168.5.11" style="shape=partialRectangle;html=1;whiteSpace=wrap;connectable=0;strokeColor=inherit;overflow=hidden;fillColor=none;top=0;left=0;bottom=0;right=0;pointerEvents=1;fontSize=12;" vertex="1" parent="0NUk9SD4DtcgiHqRZ5kP-177">
          <mxGeometry x="50" width="100" height="20" as="geometry">
            <mxRectangle width="100" height="20" as="alternateBounds" />
          </mxGeometry>
        </mxCell>
        <mxCell id="0NUk9SD4DtcgiHqRZ5kP-180" value="" style="shape=tableRow;horizontal=0;startSize=0;swimlaneHead=0;swimlaneBody=0;strokeColor=inherit;top=0;left=0;bottom=0;right=0;collapsible=0;dropTarget=0;fillColor=none;points=[[0,0.5],[1,0.5]];portConstraint=eastwest;fontSize=16;" vertex="1" parent="0NUk9SD4DtcgiHqRZ5kP-173">
          <mxGeometry y="60" width="150" height="20" as="geometry" />
        </mxCell>
        <mxCell id="0NUk9SD4DtcgiHqRZ5kP-181" value="sl" style="shape=partialRectangle;html=1;whiteSpace=wrap;connectable=0;strokeColor=inherit;overflow=hidden;fillColor=none;top=0;left=0;bottom=0;right=0;pointerEvents=1;fontSize=12;" vertex="1" parent="0NUk9SD4DtcgiHqRZ5kP-180">
          <mxGeometry width="50" height="20" as="geometry">
            <mxRectangle width="50" height="20" as="alternateBounds" />
          </mxGeometry>
        </mxCell>
        <mxCell id="0NUk9SD4DtcgiHqRZ5kP-182" value="0" style="shape=partialRectangle;html=1;whiteSpace=wrap;connectable=0;strokeColor=inherit;overflow=hidden;fillColor=none;top=0;left=0;bottom=0;right=0;pointerEvents=1;fontSize=12;" vertex="1" parent="0NUk9SD4DtcgiHqRZ5kP-180">
          <mxGeometry x="50" width="100" height="20" as="geometry">
            <mxRectangle width="100" height="20" as="alternateBounds" />
          </mxGeometry>
        </mxCell>
        <mxCell id="0NUk9SD4DtcgiHqRZ5kP-183" value="" style="shape=tableRow;horizontal=0;startSize=0;swimlaneHead=0;swimlaneBody=0;strokeColor=inherit;top=0;left=0;bottom=0;right=0;collapsible=0;dropTarget=0;fillColor=none;points=[[0,0.5],[1,0.5]];portConstraint=eastwest;fontSize=16;" vertex="1" parent="0NUk9SD4DtcgiHqRZ5kP-173">
          <mxGeometry y="80" width="150" height="20" as="geometry" />
        </mxCell>
        <mxCell id="0NUk9SD4DtcgiHqRZ5kP-184" value="ip_3" style="shape=partialRectangle;html=1;whiteSpace=wrap;connectable=0;strokeColor=inherit;overflow=hidden;fillColor=none;top=0;left=0;bottom=0;right=0;pointerEvents=1;fontSize=12;" vertex="1" parent="0NUk9SD4DtcgiHqRZ5kP-183">
          <mxGeometry width="50" height="20" as="geometry">
            <mxRectangle width="50" height="20" as="alternateBounds" />
          </mxGeometry>
        </mxCell>
        <mxCell id="0NUk9SD4DtcgiHqRZ5kP-185" value="192.168.2.11" style="shape=partialRectangle;html=1;whiteSpace=wrap;connectable=0;strokeColor=inherit;overflow=hidden;fillColor=none;top=0;left=0;bottom=0;right=0;pointerEvents=1;fontSize=12;" vertex="1" parent="0NUk9SD4DtcgiHqRZ5kP-183">
          <mxGeometry x="50" width="100" height="20" as="geometry">
            <mxRectangle width="100" height="20" as="alternateBounds" />
          </mxGeometry>
        </mxCell>
        <mxCell id="0NUk9SD4DtcgiHqRZ5kP-186" value="" style="shape=tableRow;horizontal=0;startSize=0;swimlaneHead=0;swimlaneBody=0;strokeColor=inherit;top=0;left=0;bottom=0;right=0;collapsible=0;dropTarget=0;fillColor=none;points=[[0,0.5],[1,0.5]];portConstraint=eastwest;fontSize=16;" vertex="1" parent="0NUk9SD4DtcgiHqRZ5kP-173">
          <mxGeometry y="100" width="150" height="20" as="geometry" />
        </mxCell>
        <mxCell id="0NUk9SD4DtcgiHqRZ5kP-187" value="ip_2" style="shape=partialRectangle;html=1;whiteSpace=wrap;connectable=0;strokeColor=inherit;overflow=hidden;fillColor=none;top=0;left=0;bottom=0;right=0;pointerEvents=1;fontSize=12;" vertex="1" parent="0NUk9SD4DtcgiHqRZ5kP-186">
          <mxGeometry width="50" height="20" as="geometry">
            <mxRectangle width="50" height="20" as="alternateBounds" />
          </mxGeometry>
        </mxCell>
        <mxCell id="0NUk9SD4DtcgiHqRZ5kP-188" value="192.168.3.11" style="shape=partialRectangle;html=1;whiteSpace=wrap;connectable=0;strokeColor=inherit;overflow=hidden;fillColor=none;top=0;left=0;bottom=0;right=0;pointerEvents=1;fontSize=12;" vertex="1" parent="0NUk9SD4DtcgiHqRZ5kP-186">
          <mxGeometry x="50" width="100" height="20" as="geometry">
            <mxRectangle width="100" height="20" as="alternateBounds" />
          </mxGeometry>
        </mxCell>
        <mxCell id="0NUk9SD4DtcgiHqRZ5kP-189" style="shape=tableRow;horizontal=0;startSize=0;swimlaneHead=0;swimlaneBody=0;strokeColor=inherit;top=0;left=0;bottom=0;right=0;collapsible=0;dropTarget=0;fillColor=none;points=[[0,0.5],[1,0.5]];portConstraint=eastwest;fontSize=16;" vertex="1" parent="0NUk9SD4DtcgiHqRZ5kP-173">
          <mxGeometry y="120" width="150" height="20" as="geometry" />
        </mxCell>
        <mxCell id="0NUk9SD4DtcgiHqRZ5kP-190" value="ip_1" style="shape=partialRectangle;html=1;whiteSpace=wrap;connectable=0;strokeColor=inherit;overflow=hidden;fillColor=none;top=0;left=0;bottom=0;right=0;pointerEvents=1;fontSize=12;" vertex="1" parent="0NUk9SD4DtcgiHqRZ5kP-189">
          <mxGeometry width="50" height="20" as="geometry">
            <mxRectangle width="50" height="20" as="alternateBounds" />
          </mxGeometry>
        </mxCell>
        <mxCell id="0NUk9SD4DtcgiHqRZ5kP-191" value="192.168.4.11" style="shape=partialRectangle;html=1;whiteSpace=wrap;connectable=0;strokeColor=inherit;overflow=hidden;fillColor=none;top=0;left=0;bottom=0;right=0;pointerEvents=1;fontSize=12;" vertex="1" parent="0NUk9SD4DtcgiHqRZ5kP-189">
          <mxGeometry x="50" width="100" height="20" as="geometry">
            <mxRectangle width="100" height="20" as="alternateBounds" />
          </mxGeometry>
        </mxCell>
        <mxCell id="0NUk9SD4DtcgiHqRZ5kP-192" style="shape=tableRow;horizontal=0;startSize=0;swimlaneHead=0;swimlaneBody=0;strokeColor=inherit;top=0;left=0;bottom=0;right=0;collapsible=0;dropTarget=0;fillColor=none;points=[[0,0.5],[1,0.5]];portConstraint=eastwest;fontSize=16;" vertex="1" parent="0NUk9SD4DtcgiHqRZ5kP-173">
          <mxGeometry y="140" width="150" height="20" as="geometry" />
        </mxCell>
        <mxCell id="0NUk9SD4DtcgiHqRZ5kP-193" value="ip_0" style="shape=partialRectangle;html=1;whiteSpace=wrap;connectable=0;strokeColor=inherit;overflow=hidden;fillColor=none;top=0;left=0;bottom=0;right=0;pointerEvents=1;fontSize=12;" vertex="1" parent="0NUk9SD4DtcgiHqRZ5kP-192">
          <mxGeometry width="50" height="20" as="geometry">
            <mxRectangle width="50" height="20" as="alternateBounds" />
          </mxGeometry>
        </mxCell>
        <mxCell id="0NUk9SD4DtcgiHqRZ5kP-194" value="192.168.5.11" style="shape=partialRectangle;html=1;whiteSpace=wrap;connectable=0;strokeColor=inherit;overflow=hidden;fillColor=none;top=0;left=0;bottom=0;right=0;pointerEvents=1;fontSize=12;" vertex="1" parent="0NUk9SD4DtcgiHqRZ5kP-192">
          <mxGeometry x="50" width="100" height="20" as="geometry">
            <mxRectangle width="100" height="20" as="alternateBounds" />
          </mxGeometry>
        </mxCell>
      </root>
    </mxGraphModel>
  </diagram>
</mxfile>
